<svg width="24" height="24" viewBox="0 0 24 24" fill="none" xmlns="http://www.w3.org/2000/svg">
<g clip-path="url(#clip0_1009_8233)">
<path d="M0 17.0542V3.20901C0.140922 2.72967 0.391451 2.33973 0.881234 2.14352C1.06976 2.06839 1.26078 2.00195 1.46684 2.00195C8.18038 2.00195 14.8933 2.00257 21.6068 2.00319C21.6475 2.02306 21.6864 2.05163 21.7296 2.06218C22.4605 2.24349 22.8332 2.94761 22.8307 3.61509C22.8144 7.90066 22.8219 12.1862 22.8225 16.4718C22.8225 16.6649 22.8307 16.858 22.7737 17.0455C22.7599 17.0523 22.7455 17.0585 22.7304 17.0629C22.676 17.0598 22.6215 17.0542 22.5676 17.0542C15.0455 17.0542 7.52337 17.0542 0.00125264 17.0542H0ZM19.4942 7.1568C19.4942 7.88451 19.4936 8.6116 19.4942 9.33932C19.4942 9.61997 19.5431 9.67275 19.8149 9.67399C20.3692 9.67648 20.9235 9.67648 21.4772 9.67399C21.7371 9.67275 21.7891 9.61749 21.7897 9.35484C21.791 7.89196 21.7903 6.42971 21.7897 4.96683C21.7897 4.69611 21.7064 4.61353 21.4227 4.61228C20.8997 4.60918 20.3767 4.60918 19.8538 4.61228C19.5757 4.61415 19.4942 4.69859 19.4942 4.97428C19.4936 5.70199 19.4942 6.42908 19.4942 7.1568ZM19.0107 11.9788C19.0621 12.0707 19.1009 12.1353 19.136 12.2024C19.3502 12.6146 19.5663 13.0263 19.7761 13.4411C19.8556 13.5988 19.9634 13.7068 20.1513 13.7075C20.6116 13.7081 21.0726 13.713 21.5329 13.705C21.7596 13.7013 21.9237 13.5348 21.9169 13.3448C21.91 13.1449 21.7578 13.0127 21.5173 13.0096C21.1972 13.0052 20.8765 12.9984 20.5571 13.012C20.3974 13.0189 20.3222 12.9574 20.2552 12.8227C19.9715 12.2545 19.6771 11.6913 19.3859 11.1269C19.3057 10.9717 19.2162 10.8245 19.0082 10.8295C18.8047 10.8345 18.7176 10.9754 18.6362 11.135C18.1508 12.0875 17.6623 13.0381 17.1725 13.9881C17.1349 14.0614 17.118 14.1508 17.024 14.2042C16.5844 13.348 16.1441 12.4948 15.7081 11.6398C15.6273 11.4809 15.5403 11.3443 15.3342 11.3387C15.1238 11.3331 15.0323 11.474 14.9528 11.6293C14.7505 12.0217 14.5451 12.4129 14.354 12.8109C14.2845 12.9555 14.2018 13.0201 14.034 13.012C13.7302 12.9978 13.4252 13.0064 13.1208 13.0083C12.8283 13.0102 12.6987 13.1188 12.6993 13.3542C12.6993 13.5771 12.8502 13.7044 13.1258 13.7062C13.516 13.7087 13.9068 13.6944 14.2964 13.7112C14.5757 13.723 14.7511 13.6212 14.8664 13.3678C14.9991 13.0754 15.1576 12.7941 15.3217 12.4749C15.3806 12.5774 15.42 12.6407 15.4545 12.7072C15.8584 13.4926 16.2631 14.2775 16.6633 15.0642C16.7441 15.2231 16.8311 15.3728 17.0322 15.374C17.2414 15.3752 17.3422 15.2268 17.4268 15.0598C17.7831 14.3545 18.1414 13.6503 18.5022 12.9468C18.6637 12.632 18.8316 12.3203 19.0114 11.9782L19.0107 11.9788ZM15.0962 7.60324C15.0962 7.03075 15.0975 6.45889 15.0962 5.8864C15.0956 5.61196 15.0267 5.54242 14.753 5.54055C14.2225 5.53807 13.692 5.53807 13.1615 5.54055C12.8909 5.5418 12.8051 5.62251 12.8045 5.88268C12.802 7.04255 12.8045 8.20304 12.8026 9.36291C12.8026 9.57154 12.8909 9.67772 13.1108 9.67648C13.6726 9.67213 14.2338 9.67151 14.7956 9.67648C15.0173 9.67896 15.1006 9.58023 15.0981 9.36602C15.0918 8.77863 15.0962 8.19062 15.0962 7.60262V7.60324ZM18.4608 8.11177C18.4608 7.70196 18.4627 7.29278 18.4602 6.88297C18.4589 6.62343 18.3869 6.55203 18.1295 6.55078C17.584 6.54892 17.0384 6.54892 16.4923 6.55078C16.2305 6.55203 16.1679 6.6166 16.1679 6.88546C16.1666 7.70445 16.1666 8.52406 16.1679 9.34304C16.1679 9.6088 16.2311 9.67337 16.4954 9.67461C17.0409 9.6771 17.5865 9.6771 18.1326 9.67461C18.3919 9.67337 18.4589 9.60445 18.4602 9.34056C18.4621 8.93076 18.4602 8.52157 18.4602 8.11177H18.4608ZM6.44422 8.45886C5.13207 8.45886 3.81993 8.45824 2.50842 8.45886C2.21029 8.45886 2.0725 8.60167 2.1082 8.86556C2.13262 9.04935 2.28858 9.15428 2.5485 9.15428C5.12581 9.15491 7.70312 9.15491 10.2798 9.15428C10.5792 9.15428 10.7333 9.03383 10.7339 8.80657C10.7339 8.57435 10.5867 8.45824 10.2867 8.45824C9.00587 8.45824 7.72504 8.45824 6.44422 8.45824V8.45886ZM6.39724 12.8264C6.46739 12.8264 6.53754 12.8264 6.60831 12.8264C7.85031 12.8264 9.09168 12.827 10.3337 12.8264C10.6099 12.8264 10.7834 12.6494 10.7289 12.4097C10.6763 12.1794 10.494 12.1291 10.2804 12.1291C7.71127 12.1303 5.14147 12.1297 2.5723 12.1303C2.25663 12.1303 2.10256 12.2508 2.10694 12.4898C2.11133 12.7388 2.22782 12.827 2.55539 12.827C3.83622 12.827 5.11704 12.827 6.39787 12.827L6.39724 12.8264ZM6.38847 5.2065C7.68433 5.2065 8.98019 5.2065 10.2767 5.2065C10.5767 5.2065 10.732 5.08791 10.7339 4.86251C10.7358 4.6334 10.5817 4.51045 10.2848 4.51045C7.70813 4.50983 5.13207 4.50983 2.55539 4.51045C2.25789 4.51045 2.10569 4.63277 2.10632 4.86189C2.10694 5.11461 2.22407 5.2065 2.54787 5.2065C3.82807 5.2065 5.1089 5.2065 6.3891 5.2065H6.38847ZM4.88405 7.06428C5.65631 7.06428 6.42856 7.06428 7.20144 7.06428C7.27159 7.06428 7.34236 7.06428 7.41126 7.05435C7.62233 7.02206 7.72254 6.88546 7.72567 6.6849C7.72818 6.51415 7.5622 6.37072 7.35614 6.3701C5.71768 6.36699 4.07923 6.36699 2.44077 6.3701C2.21029 6.3701 2.10131 6.49801 2.10632 6.72464C2.1107 6.93513 2.26039 7.06242 2.52032 7.06304C3.30823 7.06552 4.09614 7.06366 4.88405 7.06428ZM7.91795 10.316C7.12252 10.316 6.32772 10.3173 5.53229 10.3148C5.40265 10.3148 5.28364 10.3235 5.19909 10.4377C5.12017 10.5445 5.08635 10.6501 5.15086 10.7811C5.23918 10.9599 5.38824 11.0121 5.57175 11.0121C7.14695 11.0121 8.72152 11.0121 10.2967 11.0114C10.5861 11.0114 10.7389 10.8804 10.7333 10.6476C10.727 10.4073 10.6105 10.316 10.3036 10.3154C9.50818 10.3148 8.71338 10.3154 7.91795 10.3154V10.316ZM4.30533 14.6829C4.34416 14.6829 4.38299 14.6829 4.42245 14.6829C4.99178 14.6829 5.5611 14.686 6.1298 14.6811C6.36718 14.6792 6.51311 14.5407 6.51562 14.3377C6.51875 14.1129 6.40852 13.9887 6.17553 13.9881C4.92789 13.9844 3.68026 13.9863 2.43263 13.9869C2.2892 13.9869 2.17647 14.0452 2.11383 14.1806C2.00047 14.4265 2.19024 14.678 2.50341 14.6804C3.10342 14.686 3.70406 14.6823 4.3047 14.6823L4.30533 14.6829ZM3.1861 10.316C2.94496 10.316 2.7032 10.3123 2.46207 10.3173C2.23346 10.3216 2.09317 10.4414 2.075 10.6377C2.06122 10.7867 2.22532 10.9984 2.40382 11.0034C2.8936 11.0177 3.38464 11.0183 3.87442 11.0034C4.0667 10.9978 4.22767 10.7885 4.21326 10.6234C4.1976 10.4452 4.03539 10.3185 3.81617 10.3166C3.60636 10.3148 3.39591 10.3166 3.18547 10.3166L3.1861 10.316ZM9.69858 6.36886C9.45745 6.36886 9.21631 6.36203 8.97581 6.37072C8.77914 6.37817 8.65576 6.49242 8.6307 6.68366C8.60565 6.87552 8.75722 7.05497 8.96078 7.05931C9.44242 7.06987 9.92468 7.07049 10.407 7.05869C10.6143 7.05373 10.7464 6.88173 10.7339 6.68552C10.722 6.50359 10.5786 6.37258 10.3756 6.36886C10.1502 6.36451 9.92468 6.36823 9.69921 6.36886H9.69858Z" fill="#B6DCFF"/>
<path d="M23.9896 17.0573C23.9859 17.3976 24.026 17.7453 23.969 18.0763C23.8393 18.822 23.2224 19.2734 22.3944 19.274C20.0213 19.2759 17.6488 19.274 15.2756 19.2746C15.1823 19.2746 15.0884 19.279 14.995 19.2815C14.5265 19.2616 14.0581 19.2604 13.5896 19.2821C12.8123 19.2784 12.035 19.2715 11.2578 19.2715C10.5037 19.2715 9.75022 19.2784 8.99613 19.2821C8.0366 19.2796 7.07708 19.2753 6.11755 19.2746C4.69768 19.2734 3.27719 19.251 1.85794 19.2827C0.954163 19.3026 0.304042 19.0058 -0.000976562 18.1222V18.0756C7.13595 18.0756 14.2729 18.0763 21.4098 18.0769C21.433 18.0769 21.4568 18.0769 21.48 18.0769C22.0455 18.0564 22.6192 17.5907 22.7282 17.0623C22.7432 17.0573 22.7577 17.0518 22.7714 17.0449C23.1773 17.0493 23.5831 17.0536 23.989 17.058L23.9896 17.0573Z" fill="#264653"/>
<path d="M22.7292 17.0637C22.6196 17.5921 22.0465 18.0577 21.4809 18.0782C21.4578 18.0789 21.434 18.0782 21.4108 18.0782C14.2739 18.0782 7.13693 18.0776 0 18.077V17.055C7.52212 17.055 15.0442 17.0543 22.5663 17.055C22.6208 17.055 22.6753 17.0606 22.7292 17.0637Z" fill="#4C565B"/>
<path d="M23.9899 17.0585C23.584 17.0542 23.1782 17.0498 22.7723 17.0455C22.8293 16.8574 22.8212 16.6642 22.8212 16.4718C22.8212 12.1862 22.813 7.90064 22.8293 3.61508C22.8318 2.94759 22.4591 2.24347 21.7282 2.06217C21.685 2.05161 21.6462 2.02305 21.6055 2.00318C22.0251 2.01746 22.446 1.96592 22.8644 2.04726C23.4544 2.16151 23.9905 2.77249 23.9905 3.36609C23.9924 7.93044 23.9905 12.4942 23.9892 17.0585H23.9899Z" fill="#D7E9EF"/>
<path d="M19.4947 7.15622C19.4947 6.4285 19.4947 5.70141 19.4947 4.9737C19.4947 4.69801 19.5761 4.61295 19.8542 4.6117C20.3772 4.6086 20.9002 4.6086 21.4231 4.6117C21.7069 4.61295 21.7902 4.69553 21.7902 4.96625C21.7908 6.42912 21.7908 7.89138 21.7902 9.35426C21.7902 9.61691 21.7376 9.67217 21.4776 9.67341C20.9233 9.67652 20.369 9.67589 19.8154 9.67341C19.5436 9.67217 19.4953 9.61939 19.4947 9.33874C19.4934 8.61102 19.4947 7.88393 19.4947 7.15622Z" fill="#2278C8"/>
<path d="M19.0103 11.9789C18.8299 12.321 18.6621 12.6327 18.5011 12.9475C18.141 13.651 17.7827 14.3551 17.4257 15.0605C17.3412 15.2275 17.2403 15.3759 17.0311 15.3747C16.8301 15.3734 16.743 15.2238 16.6622 15.0648C16.262 14.2775 15.8574 13.4927 15.4534 12.7078C15.419 12.6414 15.3795 12.5781 15.3206 12.4756C15.1559 12.7954 14.9975 13.0761 14.8653 13.3685C14.7501 13.6218 14.5747 13.7237 14.2954 13.7119C13.9058 13.6957 13.515 13.7094 13.1248 13.7069C12.8486 13.705 12.6982 13.5778 12.6982 13.3548C12.6982 13.1189 12.8273 13.0109 13.1198 13.009C13.4241 13.0071 13.7292 12.9984 14.0329 13.0127C14.2008 13.0202 14.2835 12.9562 14.353 12.8115C14.544 12.4135 14.7494 12.023 14.9517 11.6299C15.0319 11.4747 15.1227 11.3338 15.3332 11.3394C15.5392 11.3449 15.6263 11.4815 15.7071 11.6405C16.143 12.4955 16.5833 13.3486 17.023 14.2049C17.1169 14.1515 17.1338 14.0621 17.1714 13.9888C17.6612 13.0388 18.1504 12.0882 18.6351 11.1357C18.7166 10.9767 18.8036 10.8352 19.0072 10.8302C19.2151 10.8252 19.3047 10.9724 19.3848 11.1276C19.6761 11.692 19.9705 12.2552 20.2542 12.8233C20.3212 12.9581 20.3964 13.0195 20.5561 13.0127C20.8755 12.9991 21.1962 13.0059 21.5162 13.0102C21.7561 13.0133 21.9083 13.1456 21.9158 13.3455C21.9227 13.5349 21.7586 13.7013 21.5319 13.7057C21.0715 13.7137 20.6106 13.7088 20.1502 13.7081C19.9623 13.7081 19.8552 13.5995 19.775 13.4418C19.5652 13.027 19.3491 12.616 19.1349 12.203C19.1005 12.136 19.0617 12.0714 19.0097 11.9795L19.0103 11.9789Z" fill="#2278C8"/>
<path d="M15.0953 7.60299C15.0953 8.19099 15.091 8.77838 15.0972 9.36639C15.0997 9.5806 15.0158 9.67871 14.7947 9.67685C14.2329 9.67126 13.6717 9.67188 13.1099 9.67685C12.8894 9.67871 12.8011 9.57191 12.8018 9.36328C12.803 8.20341 12.8011 7.04292 12.8036 5.88305C12.8036 5.62289 12.8901 5.54217 13.1606 5.54093C13.6911 5.53844 14.2216 5.53844 14.7521 5.54093C15.0258 5.54217 15.0947 5.61233 15.0953 5.88678C15.0972 6.45926 15.0953 7.03112 15.0953 7.60361V7.60299Z" fill="#FED85E"/>
<path d="M18.4603 8.11121C18.4603 8.52101 18.4615 8.9302 18.4603 9.34C18.459 9.60389 18.392 9.67281 18.1327 9.67405C17.5872 9.67654 17.0416 9.67654 16.4955 9.67405C16.2312 9.67281 16.1686 9.60886 16.1679 9.34248C16.1667 8.5235 16.1667 7.70389 16.1679 6.8849C16.1679 6.61604 16.2306 6.55147 16.4924 6.55023C17.0379 6.54836 17.5834 6.54836 18.1296 6.55023C18.387 6.55085 18.4584 6.62287 18.4603 6.88242C18.4628 7.29222 18.4609 7.7014 18.4603 8.11121Z" fill="#EF7A5D"/>
<path d="M6.44393 8.45898C7.72476 8.45898 9.00558 8.45898 10.2864 8.45898C10.5864 8.45898 10.7342 8.5751 10.7336 8.80732C10.7336 9.03457 10.5789 9.15503 10.2795 9.15503C7.70221 9.15503 5.1249 9.15503 2.54821 9.15503C2.28829 9.15503 2.13233 9.04948 2.10791 8.86631C2.07283 8.60304 2.21 8.46023 2.50813 8.45961C3.82027 8.45836 5.13241 8.45961 6.44393 8.45961V8.45898Z" fill="#4A9CE9"/>
<path d="M6.39646 12.8268C5.11564 12.8268 3.83481 12.8268 2.55398 12.8268C2.22579 12.8268 2.10929 12.7386 2.10554 12.4897C2.10178 12.2506 2.25523 12.1308 2.57089 12.1301C5.14006 12.1301 7.70986 12.1301 10.279 12.1289C10.4926 12.1289 10.6755 12.1786 10.7275 12.4096C10.782 12.6499 10.6085 12.8262 10.3323 12.8262C9.09027 12.8274 7.8489 12.8262 6.60691 12.8262C6.53676 12.8262 6.46661 12.8262 6.39584 12.8262L6.39646 12.8268Z" fill="#4A9CE9"/>
<path d="M6.38825 5.20628C5.10805 5.20628 3.82723 5.20628 2.54703 5.20628C2.22322 5.20628 2.10672 5.11438 2.10547 4.86167C2.10484 4.63255 2.25767 4.51023 2.55454 4.51023C5.13123 4.50961 7.70729 4.50961 10.284 4.51023C10.5808 4.51023 10.7349 4.63379 10.733 4.86229C10.7312 5.08768 10.5765 5.20628 10.2758 5.20628C8.97997 5.2069 7.68411 5.20628 6.38763 5.20628H6.38825Z" fill="#4A9CE9"/>
<path d="M4.88431 7.06332C4.09639 7.06332 3.30848 7.06518 2.52057 7.0627C2.26065 7.06208 2.11096 6.93417 2.10657 6.7243C2.10219 6.49766 2.21117 6.36975 2.44103 6.36975C4.07948 6.36603 5.71794 6.36665 7.3564 6.36975C7.56246 6.36975 7.72843 6.51381 7.72593 6.68456C7.72279 6.88511 7.62258 7.02172 7.41151 7.054C7.34262 7.06456 7.27184 7.06394 7.2017 7.06394C6.42944 7.06456 5.65719 7.06394 4.88431 7.06394V7.06332Z" fill="#4A9CE9"/>
<path d="M7.91723 10.3151C8.71265 10.3151 9.50745 10.3151 10.3029 10.3151C10.6098 10.3151 10.7263 10.407 10.7325 10.6473C10.7382 10.8795 10.5854 11.0105 10.296 11.0111C8.7208 11.0124 7.14622 11.0111 5.57103 11.0118C5.38751 11.0118 5.23845 10.9596 5.15014 10.7808C5.08563 10.6498 5.11945 10.5442 5.19837 10.4374C5.28292 10.3226 5.40192 10.3139 5.53157 10.3145C6.327 10.317 7.1218 10.3157 7.91723 10.3157V10.3151Z" fill="#4A9CE9"/>
<path d="M4.30477 14.683C3.70413 14.683 3.10411 14.6867 2.50347 14.6811C2.19031 14.678 2.00116 14.4266 2.1139 14.1813C2.1759 14.0466 2.28927 13.9876 2.43269 13.9876C3.68033 13.9863 4.92796 13.9851 6.17559 13.9888C6.40795 13.9894 6.51881 14.1136 6.51568 14.3384C6.51318 14.5414 6.36724 14.6793 6.12987 14.6818C5.56054 14.6867 4.99122 14.6836 4.42252 14.6836C4.38368 14.6836 4.34485 14.6836 4.30539 14.6836L4.30477 14.683Z" fill="#4A9CE9"/>
<path d="M3.18557 10.3161C3.39601 10.3161 3.60583 10.3149 3.81627 10.3161C4.03548 10.318 4.1977 10.4453 4.21336 10.6229C4.22776 10.7874 4.06617 10.9967 3.87452 11.0029C3.38474 11.0178 2.8937 11.0172 2.40392 11.0029C2.22542 10.9979 2.06069 10.7862 2.0751 10.6372C2.09326 10.441 2.23356 10.3211 2.46217 10.3168C2.7033 10.3124 2.94443 10.3155 3.18619 10.3155L3.18557 10.3161Z" fill="#4A9CE9"/>
<path d="M9.69817 6.36782C9.92364 6.36782 10.1491 6.3641 10.3746 6.36782C10.5775 6.37155 10.721 6.50256 10.7329 6.68449C10.7454 6.88008 10.6132 7.05207 10.4059 7.05766C9.92427 7.07008 9.442 7.06884 8.95974 7.05828C8.75618 7.05394 8.60461 6.87449 8.62966 6.68263C8.65409 6.49139 8.7781 6.37652 8.97477 6.36969C9.21527 6.36099 9.45703 6.36782 9.69754 6.3672L9.69817 6.36782Z" fill="#4A9CE9"/>
<path d="M15.0945 22.9972C12.6387 22.9984 10.1829 23.0009 7.72774 22.9997C7.36072 22.9997 7.05632 22.7619 6.98993 22.4427C6.92041 22.1087 7.09202 21.7901 7.41145 21.6492C7.4935 21.6132 7.57554 21.6064 7.66198 21.607C7.9814 21.607 8.30145 21.607 8.62087 21.607C9.35304 21.607 10.0858 21.6082 10.818 21.607C11.8696 21.6051 12.9218 21.6008 13.9734 21.5977C14.3611 21.6001 14.7482 21.6026 15.1359 21.6051C15.4158 21.7771 15.6363 21.9789 15.6075 22.3502C15.5812 22.6861 15.3588 22.8538 15.0952 22.9966L15.0945 22.9972Z" fill="#264653"/>
<path d="M13.9736 21.5962C12.922 21.5993 11.8698 21.6036 10.8182 21.6055C10.0861 21.6067 9.35326 21.6055 8.62109 21.6055C8.73947 20.9076 8.85847 20.2097 8.97559 19.5112C8.98812 19.4354 8.99 19.3584 8.99689 19.282C9.75098 19.2783 10.5044 19.2715 11.2585 19.2715C12.0358 19.2715 12.8131 19.2783 13.5903 19.282C13.5947 19.351 13.5928 19.4211 13.6047 19.4888C13.7262 20.1917 13.8502 20.8939 13.9736 21.5962Z" fill="#899DA6"/>
<path d="M13.9732 21.5959C13.8498 20.8937 13.7258 20.1914 13.6042 19.4885C13.5923 19.4209 13.5942 19.3507 13.5898 19.2818C14.0583 19.26 14.5268 19.2607 14.9953 19.2811C15.0974 19.889 15.2001 20.4963 15.301 21.1042C15.326 21.2563 15.3467 21.409 15.3698 21.5612C15.2916 21.5748 15.2032 21.5357 15.1356 21.604C14.7479 21.6015 14.3608 21.599 13.9732 21.5965V21.5959Z" fill="#4C565B"/>
<path d="M15.1354 21.6053C15.2037 21.537 15.2914 21.5762 15.3697 21.5625C15.6741 21.6538 15.9854 21.5948 16.2935 21.6004C16.5998 21.606 16.8196 21.732 16.9499 21.9978C17.077 22.2573 17.0332 22.5119 16.8597 22.7367C16.7125 22.9279 16.4971 22.9968 16.2628 22.9987C15.8732 23.0024 15.4843 22.9974 15.0947 22.9968C15.3584 22.854 15.5814 22.6864 15.6071 22.3504C15.6359 21.9791 15.4148 21.7773 15.1354 21.6053Z" fill="#153441"/>
</g>
<defs>
<clipPath id="clip0_1009_8233">
<rect width="24" height="24" fill="white"/>
</clipPath>
</defs>
</svg>
