<svg width="25" height="24" viewBox="0 0 25 24" fill="none" xmlns="http://www.w3.org/2000/svg">
<path d="M5.35759 17.1843C5.37466 16.9329 5.22981 16.7752 5.06743 16.611C4.01981 15.5538 2.97865 14.49 1.93657 13.4272C1.35579 12.835 1.35394 12.0668 1.93426 11.4761C5.56195 7.78065 9.19148 4.08661 12.8169 0.388797C12.9774 0.224994 13.1808 0.135091 13.357 0H14.1869C14.4503 0.118145 14.6588 0.307366 14.8604 0.513062C16.5511 2.24053 18.2478 3.9614 19.9375 5.68981C20.3541 6.11579 20.8163 6.49329 21.1987 6.95505C21.7043 7.56554 21.6785 8.26312 21.1157 8.83832C20.1082 9.86868 19.0975 10.8953 18.0882 11.9237C18.0453 11.9675 18.007 12.0165 17.9664 12.0631C17.8746 12.0664 17.7828 12.0725 17.691 12.0725C15.7272 12.0725 13.7639 12.0725 11.8001 12.0706C10.6727 12.0697 9.5453 12.0668 8.41787 12.065C8.46862 12.0071 8.51705 11.9468 8.57057 11.8922C9.43874 11.0068 10.3078 10.1224 11.1769 9.23747C11.2148 9.19887 11.2535 9.16074 11.2909 9.12121C11.4717 8.92869 11.4874 8.71311 11.3324 8.56484C11.1755 8.41516 10.9966 8.4321 10.8079 8.62368C10.0846 9.35797 9.36216 10.0937 8.64161 10.8308C8.2412 11.2403 7.84494 11.654 7.44683 12.0659C7.17005 12.0678 6.89373 12.0659 6.61695 12.0725C5.93376 12.0899 5.38896 12.6326 5.37558 13.3255C5.36451 13.8884 5.37466 14.4523 5.37558 15.0158C5.37374 15.1014 5.37051 15.1866 5.37004 15.2723C5.36589 15.9096 5.36174 16.547 5.35759 17.1843ZM11.3176 4.77571C11.3236 5.2337 11.5358 5.57072 11.9344 5.76371C12.3436 5.96187 12.7541 5.91763 13.0904 5.60367C13.5028 5.21911 13.9014 4.81572 14.2797 4.39633C14.6907 3.94069 14.6468 3.28124 14.2109 2.86279C13.7916 2.45987 13.1425 2.46458 12.7158 2.88491C12.3463 3.24876 11.9865 3.62297 11.6244 3.99435C11.415 4.20946 11.3079 4.46882 11.3172 4.77571H11.3176ZM3.99951 12.915C4.15912 12.9056 4.25231 12.7992 4.3501 12.6999C6.07215 10.9461 7.79419 9.19275 9.51531 7.43893C9.56929 7.38385 9.62741 7.32878 9.66708 7.26336C9.75658 7.11509 9.75519 6.96352 9.6311 6.83455C9.50194 6.7004 9.35017 6.67875 9.19471 6.78795C9.13197 6.83173 9.07892 6.89009 9.02449 6.94516C7.30752 8.69287 5.59147 10.441 3.87542 12.1897C3.81592 12.2504 3.75364 12.3111 3.70751 12.3817C3.63416 12.4947 3.63647 12.6204 3.70151 12.7366C3.76702 12.8538 3.87312 12.9108 3.99951 12.9146V12.915Z" fill="#4A9CE9"/>
<path d="M23.4927 17.2342C23.4946 19.0488 23.5033 20.8638 23.4941 22.6783C23.4904 23.4508 22.9244 23.9991 22.1729 23.9991C17.0266 23.9982 11.8799 23.9972 6.73357 23.9954C5.89308 23.9954 5.37088 23.4639 5.36996 22.6044C5.36812 20.813 5.36996 19.0219 5.36996 17.2305C5.43916 17.2328 5.50789 17.2375 5.57709 17.2375C11.1021 17.2375 16.6276 17.2375 22.1526 17.2375C22.214 17.2375 22.2753 17.2342 22.3367 17.2324C22.7219 17.2691 23.1071 17.2639 23.4927 17.2342ZM14.9697 22.4002C15.699 22.4002 16.4279 22.4011 17.1572 22.4002C17.4206 22.4002 17.4607 22.3569 17.4616 22.0834C17.463 21.7002 17.4543 21.3171 17.4649 20.9344C17.4713 20.7094 17.3781 20.6237 17.165 20.6266C16.7125 20.6322 16.2595 20.628 15.8065 20.628C14.8165 20.628 13.8261 20.627 12.8361 20.6284C12.57 20.6284 12.5238 20.676 12.5229 20.9372C12.5215 21.3204 12.5215 21.7031 12.5229 22.0862C12.5238 22.3625 12.5589 22.3992 12.8283 22.3997C13.5419 22.4011 14.256 22.3997 14.9697 22.3997V22.4002ZM20.2959 22.4002C20.6262 22.4002 20.9565 22.3955 21.2863 22.402C21.4796 22.4058 21.5695 22.3277 21.5672 22.1262C21.5622 21.7195 21.5617 21.3128 21.5672 20.9066C21.57 20.7193 21.4893 20.6289 21.3089 20.6284C20.6331 20.628 19.9577 20.628 19.2819 20.6284C19.1172 20.6284 19.025 20.6991 19.0268 20.8826C19.0314 21.3048 19.0301 21.7271 19.0273 22.1493C19.0264 22.3281 19.1108 22.4025 19.2819 22.4011C19.6196 22.3978 19.9577 22.4002 20.2954 22.4002H20.2959ZM9.52307 22.7541C9.87643 22.7541 10.2298 22.7574 10.5827 22.7532C10.8456 22.7499 11.008 22.604 11.0011 22.3912C10.9946 22.1855 10.8406 22.0523 10.5855 22.0514C9.8792 22.0476 9.17248 22.0476 8.46623 22.0514C8.18529 22.0528 8.04275 22.1761 8.04229 22.4006C8.04183 22.6252 8.18668 22.7513 8.46346 22.7541C8.81682 22.7579 9.16971 22.7551 9.52307 22.7551V22.7541Z" fill="#2278C8"/>
<path d="M5.37525 15.0159C5.37433 14.4524 5.36418 13.889 5.37525 13.3256C5.38863 12.6327 5.93343 12.09 6.61662 12.0726C6.89294 12.0655 7.16972 12.0679 7.4465 12.066C7.77033 12.066 8.09417 12.066 8.418 12.066C9.54543 12.0679 10.6729 12.0712 11.8003 12.0716C13.764 12.073 15.7273 12.0735 17.6911 12.0735C17.7829 12.0735 17.8747 12.0674 17.9665 12.0641C19.3394 12.065 20.7131 12.0891 22.085 12.057C22.807 12.0401 23.5211 12.5574 23.4994 13.5096C23.4883 14.0095 23.4938 14.5094 23.492 15.0093C23.0957 14.9777 22.699 14.9467 22.3041 15.0248C22.2659 15.021 22.228 15.0144 22.1897 15.0144C16.5849 15.0144 10.9801 15.0154 5.37525 15.0159Z" fill="#2278C8"/>
<path d="M5.37495 15.0151C10.9798 15.0146 16.5846 15.0137 22.1894 15.0137C22.2277 15.0137 22.2656 15.0203 22.3038 15.024C22.3444 15.0574 22.3458 15.1045 22.3458 15.1516C22.3426 15.8454 22.3394 16.5392 22.3366 17.2335C22.2752 17.2354 22.2139 17.2387 22.1525 17.2387C16.6275 17.2387 11.102 17.2387 5.577 17.2387C5.50781 17.2387 5.43907 17.2344 5.36988 17.2316C5.36573 17.2156 5.36157 17.1996 5.35742 17.1841C5.36157 16.5467 5.36526 15.9094 5.36988 15.2721C5.37034 15.1864 5.37357 15.1012 5.37541 15.0156L5.37495 15.0151Z" fill="#264653"/>
<path d="M22.3365 17.2332C22.3397 16.5394 22.3429 15.8455 22.3457 15.1513C22.3457 15.1042 22.3448 15.0571 22.3037 15.0237C22.6986 14.9456 23.0953 14.9766 23.4916 15.0082C23.4916 15.7505 23.4916 16.4923 23.492 17.2346C23.1068 17.2642 22.7212 17.2699 22.336 17.2327L22.3365 17.2332Z" fill="#132D37"/>
<path d="M11.317 4.77511C11.3077 4.46822 11.4148 4.20886 11.6242 3.99375C11.9863 3.6219 12.3461 3.24817 12.7156 2.88432C13.1419 2.46398 13.7909 2.45928 14.2107 2.86219C14.6466 3.28112 14.6905 3.94056 14.2794 4.39573C13.9012 4.81512 13.5031 5.21851 13.0902 5.60307C12.7535 5.91703 12.3434 5.96128 11.9342 5.76311C11.5356 5.57012 11.3234 5.23263 11.3174 4.77511H11.317Z" fill="#2278C8"/>
<path d="M3.99925 12.9151C3.87286 12.9113 3.76676 12.8544 3.70125 12.7372C3.63621 12.6205 3.6339 12.4952 3.70725 12.3823C3.75338 12.3117 3.81565 12.251 3.87516 12.1902C5.59121 10.4416 7.30772 8.69341 9.02423 6.94571C9.0782 6.89064 9.13171 6.83227 9.19445 6.7885C9.34991 6.67929 9.50167 6.70095 9.63084 6.83509C9.75493 6.96407 9.75631 7.11563 9.66682 7.2639C9.62715 7.32933 9.56949 7.38393 9.51505 7.43947C7.79347 9.1933 6.07143 10.9471 4.34984 12.7005C4.25205 12.8003 4.15886 12.9066 3.99925 12.9156V12.9151Z" fill="#132D37"/>
<path d="M8.41779 12.066C8.09396 12.066 7.77012 12.066 7.44629 12.066C7.84439 11.6542 8.24065 11.2404 8.64106 10.8309C9.36162 10.0938 10.084 9.35857 10.8073 8.62381C10.996 8.43224 11.1745 8.41529 11.3318 8.56498C11.4868 8.71277 11.4712 8.92883 11.2903 9.12134C11.2534 9.16088 11.2147 9.19901 11.1764 9.2376C10.3073 10.1225 9.43866 11.007 8.57002 11.8923C8.51651 11.9469 8.46808 12.0072 8.41733 12.0651L8.41779 12.066Z" fill="#132D37"/>
<path d="M14.9693 22.4021C14.2556 22.4021 13.5415 22.403 12.8279 22.4021C12.5585 22.4021 12.5234 22.3649 12.5225 22.0886C12.5211 21.7054 12.5211 21.3228 12.5225 20.9396C12.5234 20.6784 12.5696 20.6313 12.8357 20.6308C13.8257 20.6294 14.8161 20.6304 15.8061 20.6304C16.2591 20.6304 16.7116 20.6341 17.1646 20.629C17.3773 20.6266 17.4705 20.7123 17.4645 20.9368C17.4534 21.3195 17.4622 21.7026 17.4612 22.0858C17.4603 22.3592 17.4202 22.4021 17.1568 22.4025C16.4275 22.404 15.6986 22.4025 14.9693 22.4025V22.4021Z" fill="#E9E8E7"/>
<path d="M20.295 22.401C19.9573 22.401 19.6192 22.3986 19.2815 22.4019C19.1104 22.4038 19.0255 22.3294 19.0269 22.1501C19.0296 21.7279 19.031 21.3057 19.0264 20.8834C19.0245 20.6999 19.1168 20.6297 19.2815 20.6293C19.9573 20.6288 20.6327 20.6288 21.3085 20.6293C21.4893 20.6293 21.5696 20.7196 21.5668 20.9074C21.5608 21.3141 21.5617 21.7208 21.5668 22.127C21.5691 22.3285 21.4791 22.4071 21.2859 22.4029C20.956 22.3963 20.6257 22.401 20.2954 22.401H20.295Z" fill="#E9E8E7"/>
<path d="M9.52278 22.755C9.16942 22.755 8.81652 22.7578 8.46316 22.7541C8.18638 22.7508 8.04153 22.6251 8.04199 22.4006C8.04245 22.1765 8.185 22.0527 8.46593 22.0513C9.17219 22.048 9.8789 22.048 10.5852 22.0513C10.8403 22.0527 10.9943 22.1859 11.0008 22.3911C11.0072 22.6039 10.8449 22.7498 10.5824 22.7531C10.229 22.7578 9.87613 22.7541 9.52278 22.7545V22.755Z" fill="#132D37"/>
</svg>
