<svg width="25" height="24" viewBox="0 0 25 24" fill="none" xmlns="http://www.w3.org/2000/svg">
<g clip-path="url(#clip0_1009_8243)">
<path d="M19.7047 5.88925C19.6981 6.0913 19.7161 6.29725 19.6807 6.49475C19.5538 7.20809 19.1064 7.63752 18.3885 7.81163C18.3932 7.90129 18.4713 7.8701 18.5167 7.88245C19.2112 8.07215 19.6854 8.66335 19.7001 9.36565C19.7041 9.5677 19.6901 9.77104 19.7034 9.97244C19.7341 10.4266 19.5645 10.7579 19.0643 10.9411C19.6239 11.1367 19.7121 11.5336 19.7074 12.017C19.6914 13.6847 19.7014 15.3524 19.7007 17.0201C19.7007 17.9153 19.3027 18.4299 18.4132 18.6884C18.4018 18.6917 18.3958 18.7105 18.3771 18.7352C18.4579 18.7586 18.5347 18.7774 18.6089 18.8034C19.1778 19.0035 19.5565 19.3862 19.658 19.9663C19.9238 21.4872 19.1485 22.578 17.915 22.9178C17.5991 23.0049 17.2752 23.0114 16.9507 22.9899C16.6141 22.9029 16.2782 22.8113 15.989 22.6144C15.209 22.0843 14.8698 21.3495 14.8998 20.4289C14.9205 19.7805 14.614 19.4979 13.9468 19.4979C11.0665 19.4966 8.18625 19.4947 5.30595 19.4934C5.30996 18.7606 5.31397 18.0284 5.31797 17.2955C6.39516 17.8276 7.54247 18.0004 8.7392 17.9439C9.29415 17.9179 9.84978 17.9641 10.4061 17.9036C10.9383 17.8458 11.4412 17.6899 11.9487 17.5444C13.4526 17.5476 14.9566 17.5515 16.4612 17.5528C16.9473 17.5528 17.2999 17.226 17.3026 16.781C17.3053 16.334 16.9407 15.9988 16.4458 15.9981C15.6978 15.9969 14.9499 15.9981 14.2019 15.9981C14.3055 15.8643 14.4056 15.7272 14.5138 15.5973C14.8117 15.24 14.9946 14.8157 15.2404 14.4285C15.6544 14.4331 16.0692 14.4428 16.4832 14.4415C16.9493 14.4402 17.2973 14.1102 17.3026 13.6756C17.308 13.2286 16.958 12.8927 16.4805 12.8875C16.2067 12.8849 15.9329 12.8843 15.6598 12.883C15.7199 12.3671 15.7199 11.8513 15.6598 11.3355C15.9583 11.3342 16.2575 11.3413 16.5553 11.329C16.9707 11.3121 17.2966 10.9723 17.3026 10.5669C17.3086 10.1621 16.9934 9.79703 16.5827 9.78144C16.1359 9.76455 15.6878 9.78534 15.2404 9.78988C14.9379 9.23961 14.616 8.70103 14.2019 8.22028C14.9746 8.22028 15.7479 8.22482 16.5206 8.21833C16.9547 8.21443 17.2933 7.87855 17.3026 7.46276C17.312 7.05347 16.9761 6.67081 16.5607 6.66886C15.0234 6.66171 13.486 6.67081 11.9487 6.67406C11.8926 6.65976 11.8352 6.64937 11.7811 6.63053C11.0699 6.3843 10.338 6.26736 9.58132 6.27321C8.23299 6.2836 6.884 6.27516 5.53568 6.2823C5.3694 6.28295 5.2966 6.24982 5.30595 6.07116C5.31998 5.79895 5.32398 5.52479 5.26855 5.25452C5.36005 4.93943 5.29594 4.61784 5.30862 4.2995C5.334 3.67387 5.55705 3.13269 6.0125 2.68832C6.45994 2.24914 7.00688 2.00291 7.63997 2.00226C12.3741 1.99707 17.1076 2.00226 21.8418 2.00356C21.8585 2.00356 21.8745 2.00746 21.8912 2.00941C21.8698 2.02046 21.8484 2.0393 21.8264 2.04124C20.5943 2.15039 19.7588 3.13724 19.7061 4.28781C19.6814 4.82054 19.7041 5.35522 19.7047 5.88925Z" fill="#4A9CE9"/>
<path d="M15.2404 14.427C14.9947 14.8142 14.8123 15.2391 14.5138 15.5958C14.405 15.7257 14.3055 15.8628 14.202 15.9966C13.9836 16.1928 13.7672 16.3903 13.5475 16.5852C13.0767 17.0023 12.505 17.2609 11.9494 17.5435C11.4419 17.6884 10.939 17.8449 10.4068 17.9028C9.85046 17.9632 9.29484 17.9171 8.73988 17.943C7.54382 17.9996 6.39585 17.8267 5.31866 17.2947C4.38305 16.773 3.59102 16.1019 3.01936 15.2021C2.43703 14.286 2.11981 13.2927 2.11514 12.211C2.1138 11.8595 2.25271 11.725 2.60799 11.7224C2.807 11.7205 3.00668 11.7289 3.20568 11.7205C3.39468 11.712 3.54761 11.7653 3.6618 11.9154C3.69586 12.2032 3.71723 12.4936 3.76532 12.7788C4.17202 15.1735 6.49802 16.7684 8.92887 16.2948C10.6385 15.9622 11.7905 14.963 12.298 13.3473C12.8129 11.7081 12.3955 10.2444 11.154 9.03734C10.2084 8.1174 9.02103 7.77243 7.69876 7.83414C7.01157 7.8322 6.32439 7.8296 5.63787 7.82765C5.41126 7.82721 5.30441 7.94264 5.31732 8.17392C5.31398 8.36753 5.31064 8.56178 5.3073 8.75538C5.11698 8.98926 4.9006 9.19781 4.66086 9.38361C4.08654 9.38361 3.51288 9.37777 2.93856 9.38556C2.69814 9.38881 2.50114 9.3128 2.33418 9.15168C1.80394 8.63714 1.27102 8.12585 0.747451 7.60481C0.416214 7.27543 0.416214 6.82845 0.747451 6.49972C1.27102 5.97933 1.80461 5.46739 2.33485 4.95285C2.50114 4.79173 2.69881 4.71507 2.93923 4.71897C3.43007 4.72676 3.92092 4.72546 4.41176 4.71702C4.82447 4.70987 5.11364 4.87554 5.2679 5.25235C5.32333 5.52261 5.31932 5.79677 5.3053 6.06899C5.29595 6.24765 5.36874 6.28143 5.53503 6.28013C6.88335 6.27363 8.23234 6.28143 9.58066 6.27103C10.338 6.26519 11.0692 6.38213 11.7805 6.62835C11.8345 6.64719 11.892 6.65759 11.9481 6.67188C12.2613 6.83365 12.5798 6.98697 12.887 7.15914C13.3866 7.43849 13.7872 7.83674 14.2013 8.21875C14.6147 8.69951 14.9366 9.23809 15.2397 9.78836C15.4014 10.2977 15.591 10.7999 15.6591 11.3339C15.7192 11.8498 15.7186 12.3656 15.6591 12.8814C15.6084 13.1153 15.5683 13.3512 15.5049 13.5818C15.4267 13.8663 15.3292 14.1451 15.2397 14.427H15.2404Z" fill="#2278C8"/>
<path d="M7.69906 7.83507C9.02134 7.77335 10.2087 8.11897 11.1543 9.03826C12.3958 10.2454 12.8132 11.7091 12.2983 13.3482C11.7908 14.9633 10.6388 15.9625 8.92918 16.2957C6.49833 16.7687 4.17232 15.1744 3.76562 12.7797C3.71687 12.4939 3.6955 12.2041 3.66211 11.9163C3.76362 11.6603 3.75961 11.3842 3.82439 11.1218C3.95328 10.5988 4.181 10.1187 4.49287 9.67494C4.55698 9.58334 4.64781 9.50473 4.66183 9.38519C4.90158 9.19938 5.11795 8.99083 5.30828 8.75695C5.40511 8.74266 5.49326 8.71797 5.5133 8.60558C5.6669 8.60428 5.76306 8.48929 5.8806 8.42172C6.44423 8.09754 7.06196 7.93772 7.69973 7.83572L7.69906 7.83507ZM7.70841 9.9478C7.70841 10.2473 7.70574 10.5468 7.70975 10.8463C7.71108 10.9509 7.69506 11.0204 7.57819 11.0704C7.3351 11.1744 7.15078 11.3537 7.0426 11.5902C6.99184 11.7006 6.92506 11.724 6.8142 11.7221C6.47295 11.7175 6.13236 11.7188 5.79111 11.7208C5.4946 11.7227 5.31629 11.8663 5.31162 12.1015C5.30627 12.3444 5.49126 12.4958 5.80113 12.4978C6.1337 12.4997 6.46694 12.503 6.79951 12.4958C6.91972 12.4932 6.98717 12.5212 7.04861 12.6355C7.29971 13.0994 7.80191 13.3462 8.28808 13.2644C8.81031 13.1767 9.20432 12.7947 9.29581 12.286C9.38129 11.813 9.12819 11.3245 8.65137 11.0789C8.53584 11.0198 8.50512 10.9561 8.50578 10.8379C8.51179 10.2473 8.51046 9.6561 8.50779 9.06555C8.50645 8.78294 8.34618 8.60753 8.10443 8.61013C7.86268 8.61273 7.71242 8.78684 7.70975 9.07399C7.70708 9.36505 7.70975 9.65675 7.70975 9.9478H7.70841Z" fill="#B6DCFF"/>
<path d="M5.30584 19.4922C8.18614 19.4935 11.0664 19.4954 13.9467 19.4967C14.6139 19.4967 14.9204 19.7793 14.8997 20.4277C14.8696 21.3483 15.2089 22.0837 15.9889 22.6132C16.2781 22.8094 16.6147 22.901 16.9506 22.9887C16.8758 22.9913 16.801 22.9965 16.7262 22.9965C12.1456 22.9965 7.56507 22.9978 2.98451 22.9965C1.70497 22.9965 0.741983 22.1987 0.535628 20.9747C0.490884 20.7097 0.495559 20.4394 0.521604 20.175C0.561005 19.7735 0.909605 19.4993 1.35838 19.498C2.61588 19.4954 3.87338 19.4974 5.13087 19.4967C5.18897 19.4967 5.24708 19.4935 5.30584 19.4922Z" fill="#2278C8"/>
<path d="M19.7047 5.88965C19.7033 5.35562 19.6813 4.82094 19.706 4.28821C19.7588 3.13829 20.5949 2.15144 21.8263 2.04164C21.849 2.03969 21.8697 2.02085 21.8911 2.00981C23.2935 1.91626 24.4609 2.94599 24.4956 4.309C24.5016 4.55977 24.5003 4.81119 24.4976 5.06262C24.4922 5.56157 24.1643 5.88445 23.6521 5.88575C22.3365 5.88965 21.0209 5.88835 19.7047 5.88965Z" fill="#2278C8"/>
<path d="M11.9489 17.5433C12.5052 17.2606 13.0769 17.0021 13.547 16.585C13.7667 16.3901 13.9837 16.1926 14.2015 15.9964C14.9494 15.9964 15.6974 15.9957 16.4453 15.9964C16.9402 15.997 17.3048 16.3323 17.3021 16.7792C17.2995 17.2236 16.9469 17.551 16.4607 17.551C14.9568 17.5497 13.4528 17.5452 11.9482 17.5426L11.9489 17.5433Z" fill="#2278C8"/>
<path d="M14.2024 8.22047C13.7891 7.83847 13.3877 7.44022 12.8882 7.16086C12.581 6.9887 12.2624 6.83537 11.9492 6.6736C13.4865 6.67036 15.0238 6.66191 16.5612 6.66841C16.9765 6.67036 17.3118 7.05301 17.3031 7.46231C17.2938 7.87745 16.9558 8.21398 16.5211 8.21788C15.7484 8.22437 14.9751 8.21982 14.2024 8.21982V8.22047Z" fill="#2278C8"/>
<path d="M15.6596 11.3359C15.5915 10.8025 15.4018 10.3003 15.2402 9.79035C15.6877 9.7858 16.1358 9.76501 16.5825 9.7819C16.9933 9.79749 17.3085 10.162 17.3025 10.5674C17.2964 10.9727 16.9705 11.3119 16.5552 11.3294C16.2573 11.3418 15.9581 11.3346 15.6596 11.3359Z" fill="#2278C8"/>
<path d="M15.2402 14.4284C15.3297 14.1471 15.4272 13.8677 15.5054 13.5832C15.5688 13.3532 15.6089 13.1167 15.6596 12.8828C15.9334 12.8841 16.2072 12.8841 16.4804 12.8874C16.9579 12.8926 17.3071 13.2284 17.3025 13.6754C17.2971 14.11 16.9492 14.4401 16.483 14.4414C16.069 14.4427 15.6543 14.4329 15.2402 14.4284Z" fill="#2278C8"/>
<path d="M7.69888 7.83332C7.06112 7.93532 6.44339 8.09579 5.87975 8.41932C5.76222 8.48689 5.66605 8.60253 5.51245 8.60318C5.44767 8.4596 5.38223 8.31602 5.31745 8.17245C5.30454 7.9416 5.41139 7.82617 5.638 7.82617C6.32519 7.82812 7.01237 7.83007 7.69888 7.83267V7.83332Z" fill="#4A9CE9"/>
<path d="M5.31763 8.17383C5.38241 8.31741 5.44786 8.46098 5.51264 8.60456C5.4926 8.71695 5.40445 8.74164 5.30762 8.75593C5.31096 8.56233 5.3143 8.36808 5.31763 8.17448V8.17383Z" fill="#4A9CE9"/>
<path d="M7.70879 9.94709C7.70879 9.65604 7.70679 9.36434 7.70879 9.07329C7.71146 8.78613 7.86172 8.61267 8.10347 8.60942C8.34589 8.60617 8.5055 8.78158 8.50683 9.06484C8.5095 9.65539 8.51084 10.2466 8.50483 10.8371C8.50349 10.9554 8.53488 11.0191 8.65041 11.0782C9.12723 11.3237 9.37967 11.8123 9.29485 12.2853C9.20336 12.794 8.80935 13.176 8.28712 13.2637C7.80095 13.3455 7.29875 13.0987 7.04765 12.6348C6.98621 12.5204 6.91876 12.4932 6.79856 12.4951C6.46598 12.5023 6.13341 12.499 5.80017 12.4971C5.4903 12.4951 5.30532 12.3437 5.31066 12.1008C5.31533 11.8656 5.49364 11.722 5.79015 11.72C6.13141 11.7181 6.47199 11.7162 6.81325 11.7213C6.92344 11.7226 6.99089 11.6999 7.04164 11.5895C7.14983 11.3536 7.33414 11.1737 7.57723 11.0697C7.6941 11.0197 7.71079 10.9502 7.70879 10.8456C7.70478 10.5461 7.70745 10.2466 7.70745 9.94709H7.70879ZM8.50683 12.1027C8.50349 11.8935 8.32385 11.7213 8.10881 11.7213C7.89311 11.7213 7.71413 11.8922 7.71079 12.1021C7.70679 12.321 7.89711 12.5029 8.12083 12.4958C8.3352 12.4893 8.51084 12.3106 8.50683 12.1027Z" fill="#264653"/>
<path d="M8.50606 12.104C8.5094 12.3126 8.33443 12.4906 8.12006 12.4971C7.89568 12.5042 7.70602 12.3217 7.71002 12.1034C7.71336 11.8935 7.89301 11.722 8.10804 11.7227C8.32375 11.7227 8.50272 11.8948 8.50606 12.104Z" fill="#2278C8"/>
</g>
<defs>
<clipPath id="clip0_1009_8243">
<rect width="24" height="24" fill="white" transform="translate(0.5)"/>
</clipPath>
</defs>
</svg>
