<svg width="25" height="24" viewBox="0 0 25 24" fill="none" xmlns="http://www.w3.org/2000/svg">
<g clip-path="url(#clip0_1009_8229)">
<path d="M4.15571 18.5748C3.72235 18.3403 3.35827 18.0063 2.96602 17.7138C2.10281 17.0707 1.25429 16.4081 0.394608 15.7597C0.311223 15.697 0.25074 15.6194 0.179688 15.5489V15.3127C0.28245 15.196 0.372294 15.0663 0.506178 14.9805C0.739889 15.0628 0.901373 15.2481 1.09222 15.392C2.22554 16.2494 3.36062 17.1051 4.49512 17.9613C4.40293 18.1774 4.29723 18.3865 4.15571 18.5748Z" fill="#4A9CE9"/>
<path d="M4.47603 18.2837C4.61755 18.0954 4.72325 17.8864 4.81486 17.6703C4.9828 17.3973 5.14957 17.1231 5.31869 16.8507C5.55886 16.4652 5.80079 16.0809 6.04155 15.6967C6.35042 15.3023 6.64814 14.899 6.96993 14.5159C7.79614 13.5324 8.63292 12.5583 9.465 11.5801C10.0833 10.853 10.7011 10.1252 11.3194 9.39747C11.5396 9.14522 11.7598 8.89297 11.98 8.64072C13.1545 7.27228 14.3283 5.90326 15.5027 4.53482C15.8967 4.08954 16.2914 3.64425 16.6854 3.19837C17.4018 2.38773 18.2632 1.77782 19.2386 1.32661C20.0454 0.953566 20.8904 0.725592 21.7759 0.650391C21.6696 1.50662 21.4835 2.34154 21.1147 3.12613C21.0795 3.20073 21.0736 3.27594 21.0707 3.3541C21.0572 3.35114 21.0437 3.34818 21.0296 3.3464C20.5598 2.83124 19.9473 2.62932 19.2832 2.5553C19.0401 2.52806 18.8587 2.77203 18.9215 3.01243C18.9761 3.22264 19.1446 3.27534 19.3319 3.29903C19.8616 3.36594 20.3196 3.57082 20.6573 4.00545C20.6561 4.02085 20.6573 4.03684 20.6596 4.05223C20.571 4.18013 20.4817 4.30744 20.3942 4.43594C19.9779 5.0488 19.4635 5.56692 18.9256 6.07202C18.2239 6.73048 17.5357 7.40433 16.8427 8.07227C16.144 8.74553 15.4446 9.41879 14.7458 10.0921C14.0523 10.76 13.3594 11.4279 12.6653 12.0953C11.9542 12.7786 11.2448 13.4637 10.5349 14.1482C9.85315 14.8055 9.16963 15.461 8.48788 16.1183C7.77794 16.8028 7.07269 17.492 6.35629 18.17C5.71975 18.7734 5.102 19.3975 4.47545 20.011C4.43141 20.0542 4.37914 20.0891 4.33041 20.1276C4.01801 19.7943 3.95987 19.4289 4.14543 19.0055C4.25172 18.7628 4.40792 18.5431 4.47486 18.2819L4.47603 18.2837Z" fill="#95CCFF"/>
<path d="M20.7504 3.64435C20.7534 3.56618 20.7592 3.49039 20.7945 3.41637C21.1638 2.63179 21.35 1.79687 21.4557 0.940638C21.7763 0.884977 22.0957 0.819249 22.4222 0.89682C22.9954 1.0336 23.3952 1.5085 23.3847 2.10064C23.3541 3.77817 22.875 5.3124 21.919 6.69446C21.3124 7.57082 20.5097 8.24527 19.7187 8.93452C19.6365 9.00617 19.5602 9.08492 19.4809 9.16012C19.4069 9.21697 19.33 9.27085 19.2601 9.33184C18.4773 10.0122 17.6946 10.6926 16.9142 11.3759C16.4103 11.8176 15.9106 12.2647 15.4097 12.7094C15.1549 12.9232 14.8906 13.1263 14.6604 13.3685C13.8742 14.0482 13.0873 14.7268 12.3016 15.4078C11.0262 16.5133 9.78834 17.6638 8.42659 18.6651C8.24044 18.7907 8.05664 18.9204 7.86697 19.0412C7.3972 19.3408 6.9245 19.6363 6.45296 19.9335C6.22219 20.0223 6.01314 20.1526 5.80233 20.2805C5.56627 20.396 5.33315 20.5174 5.09356 20.6251C4.70189 20.8016 4.31492 20.7246 4.01074 20.4202C4.05948 20.3818 4.11174 20.3468 4.15578 20.3036C4.78234 19.6895 5.40009 19.0654 6.03663 18.4626C6.75244 17.784 7.45827 17.0954 8.16821 16.4109C8.84997 15.7536 9.53348 15.0981 10.2152 14.4408C10.9252 13.7563 11.6345 13.0712 12.3456 12.3879C13.0397 11.7205 13.7326 11.0526 14.4261 10.3847C15.1249 9.71141 15.8243 9.03814 16.5231 8.36488C17.216 7.69695 17.9042 7.02309 18.6059 6.36463C19.1444 5.85954 19.6588 5.34142 20.0746 4.72855C20.162 4.60006 20.2513 4.47275 20.34 4.34485C20.3723 4.38807 20.4075 4.42893 20.4357 4.47453C20.6107 4.76112 20.6577 5.08621 20.7129 5.41011C20.751 5.63571 20.9284 5.75177 21.1562 5.71979C21.3365 5.69492 21.4733 5.50248 21.4475 5.30234C21.3682 4.68533 21.1703 4.11806 20.7504 3.64671V3.64435Z" fill="#4A9CE9"/>
<path d="M15.503 4.53563C14.3286 5.90407 13.1547 7.27309 11.9803 8.64153C11.9069 8.63797 11.8452 8.60304 11.7889 8.561C10.352 7.47679 8.91563 6.39199 7.4793 5.30719C6.44698 4.52734 5.41231 3.75164 4.38469 2.96587C3.9155 2.60703 3.42401 2.27721 2.98242 1.88166C3.35413 1.50151 3.6953 1.08464 4.104 0.750085C4.70178 0.260386 5.36827 0.294138 6.05179 0.612117C6.57206 0.854302 7.11288 1.05148 7.6449 1.2688C8.1499 1.48552 8.65432 1.70284 9.15991 1.91838C9.23683 1.95094 9.31258 1.99891 9.4036 1.97759C9.59797 2.15464 9.85576 2.1955 10.0842 2.29675C10.4007 2.43768 10.7125 2.59223 11.0472 2.68697C11.588 2.95699 12.1576 3.16009 12.712 3.39813C12.7437 3.41175 12.7871 3.39813 12.8247 3.39695C12.9921 3.574 13.2275 3.61486 13.4378 3.70427C14.0579 3.96718 14.6803 4.22357 15.3027 4.47997C15.3662 4.50603 15.4355 4.51728 15.5018 4.53563H15.503Z" fill="#95CCFF"/>
<path d="M15.7305 12.4204C16.2319 11.9757 16.7311 11.5286 17.2349 11.0869C18.0147 10.4036 18.7981 9.72318 19.5808 9.04281C19.6513 8.98182 19.7282 8.92794 19.8016 8.87109C20.1616 9.74154 20.5221 10.6114 20.8815 11.4824C20.9132 11.5594 20.9162 11.6565 21.0277 11.669C20.9614 11.7566 21.0219 11.8306 21.053 11.907C21.218 12.3132 21.38 12.7206 21.5527 13.1232C21.6032 13.2417 21.6161 13.3832 21.7318 13.4685C21.8064 13.8723 22.0125 14.2258 22.161 14.6012C22.255 14.8387 22.3202 15.0915 22.4699 15.3053C22.6285 15.8169 22.8722 16.2942 23.0577 16.7951C22.9508 17.0876 22.8704 17.3938 22.6431 17.6241C22.2474 18.0256 21.8516 18.4264 21.4523 18.8244C21.1305 19.1453 20.6143 19.1056 20.3442 18.7432C20.1064 18.4247 19.8697 18.1055 19.6331 17.7858C18.5027 16.2563 17.3682 14.7291 16.246 13.1931C16.064 12.9444 15.8268 12.7289 15.7305 12.421V12.4204Z" fill="#95CCFF"/>
<path d="M15.4104 12.7096C15.5067 13.0181 15.7445 13.233 15.926 13.4817C17.0487 15.0171 18.1827 16.5443 19.313 18.0744C19.5491 18.3941 19.7863 18.7133 20.0242 19.0318C20.2943 19.3942 20.8104 19.4339 21.1322 19.113C21.5315 18.7151 21.9273 18.3136 22.3231 17.9127C22.5503 17.6824 22.6308 17.3756 22.7377 17.0837C22.7799 17.1702 22.8222 17.2566 22.8645 17.3431C23.0982 17.9322 23.3472 18.5161 23.5627 19.1124C23.8164 19.8141 23.6173 20.4216 23.1141 20.9415C22.8093 21.2571 22.4981 21.5662 22.188 21.8765C21.7488 22.3164 21.2438 22.2791 20.8715 21.7752C20.0729 20.6946 19.2784 19.611 18.4798 18.5303C17.2079 16.809 15.9342 15.0888 14.6611 13.368C14.8913 13.1253 15.155 12.9222 15.4104 12.709V12.7096Z" fill="#4A9CE9"/>
<path d="M2.66294 2.17051C3.10453 2.56606 3.59544 2.89588 4.06521 3.25472C5.09283 4.04049 6.1275 4.81619 7.15982 5.59604C8.59615 6.68084 10.0325 7.76564 11.4694 8.84985C11.5258 8.89248 11.5874 8.92742 11.6608 8.93038C11.4406 9.18263 11.2204 9.43488 11.0002 9.68713C9.63552 8.66332 8.27083 7.63951 6.90673 6.61452C5.52385 5.57591 4.14331 4.53374 2.75866 3.4975C2.21901 3.09366 2.17614 2.56547 2.66353 2.16992L2.66294 2.17051Z" fill="#4A9CE9"/>
<path d="M6.0418 15.6974C5.80046 16.0823 5.55853 16.466 5.31894 16.8515C5.14924 17.1239 4.98306 17.3975 4.81511 17.671C3.68062 16.8148 2.54553 15.9592 1.41221 15.1017C1.22137 14.9573 1.05988 14.7725 0.826172 14.6902C1.15736 14.2852 1.532 13.9607 2.09808 13.9814C2.28892 13.9885 2.46391 14.0477 2.63303 14.1253C3.76987 14.6476 4.90613 15.1728 6.0418 15.6968V15.6974Z" fill="#95CCFF"/>
<path d="M5.80273 20.2806C6.01354 20.1533 6.22259 20.0224 6.45337 19.9336C6.65184 20.2042 6.84797 20.4766 7.04998 20.7448C7.38527 21.1901 8.05705 21.3281 8.49158 21.0137C8.73645 20.8366 8.94433 20.6057 9.13341 20.3641C9.28902 20.4813 9.30899 20.6738 9.38356 20.8342C9.58909 21.2754 9.77934 21.723 9.98311 22.1648C10.2385 22.7172 10.1182 23.2058 9.73941 23.6457C9.58087 23.8293 9.40705 24.0016 9.22443 24.1615C9.00716 24.3521 8.81631 24.3279 8.64661 24.1005C8.11812 23.3923 7.59432 22.6805 7.067 21.9711C6.64715 21.4062 6.22435 20.8437 5.80273 20.28V20.2806Z" fill="#4A9CE9"/>
<path d="M9.45348 20.0738C9.2644 20.3154 9.05652 20.5464 8.81166 20.7234C8.37712 21.0379 7.70593 20.8993 7.37005 20.4546C7.16805 20.1869 6.97192 19.914 6.77344 19.6434C7.24497 19.3461 7.71768 19.0506 8.18745 18.751C8.37653 18.6302 8.56033 18.5005 8.74706 18.375C8.9567 18.8606 9.16633 19.3467 9.37714 19.8317C9.4112 19.9098 9.46053 19.9827 9.45348 20.0738Z" fill="#95CCFF"/>
<path d="M23.1844 17.052C23.1421 16.9656 23.0998 16.8791 23.0575 16.7927C22.8714 16.2917 22.6283 15.8145 22.4697 15.3029C22.6729 15.0968 22.8726 14.8866 23.081 14.6858C23.3347 14.4413 23.5643 14.4443 23.8162 14.6888C23.99 14.8576 24.1621 15.0293 24.3283 15.2063C24.5461 15.439 24.5608 15.6712 24.3459 15.8944C23.9671 16.2882 23.5725 16.6671 23.1844 17.052Z" fill="#2278C8"/>
<path d="M9.40421 1.97694C9.31319 1.99826 9.23744 1.95089 9.16052 1.91773C8.65493 1.70278 8.15051 1.48487 7.64551 1.26815C8.01134 0.893917 8.37013 0.511395 8.74595 0.147821C8.95969 -0.0594277 9.18929 -0.044032 9.41067 0.164401C9.59271 0.336121 9.76828 0.514948 9.94034 0.696734C10.1746 0.944249 10.174 1.17341 9.9421 1.42151C9.76594 1.60981 9.58331 1.79219 9.40362 1.97694H9.40421Z" fill="#2278C8"/>
<path d="M12.8253 3.39606C12.7872 3.39725 12.7443 3.41087 12.7126 3.39725C12.1583 3.15921 11.5887 2.9561 11.0479 2.68609C11.3497 2.38113 11.6492 2.07381 11.9539 1.77242C12.2364 1.49293 12.4583 1.49352 12.7379 1.76827C12.9046 1.93229 13.0726 2.09572 13.2317 2.26744C13.4507 2.50371 13.4484 2.73642 13.2299 2.97446C13.0984 3.11776 12.9604 3.25572 12.8253 3.39606Z" fill="#2278C8"/>
<path d="M21.732 13.4663C21.6163 13.3816 21.6034 13.2395 21.5529 13.1211C21.3802 12.7184 21.2182 12.311 21.0532 11.9048C21.022 11.8284 20.9616 11.7538 21.0279 11.6668C21.1401 11.5584 21.2493 11.4459 21.3662 11.3429C21.584 11.1504 21.8001 11.1433 22.0156 11.3387C22.2182 11.5229 22.412 11.7177 22.5958 11.9208C22.799 12.1452 22.7896 12.3809 22.5717 12.6112C22.2975 12.9014 22.0127 13.1815 21.7326 13.4663H21.732Z" fill="#2278C8"/>
<path d="M20.3382 4.29599C20.0012 3.86136 19.5431 3.65648 19.0129 3.58957C18.8256 3.56588 18.6576 3.51318 18.6024 3.30297C18.5396 3.06256 18.7204 2.8186 18.9641 2.84584C19.6283 2.91986 20.2401 3.12178 20.7105 3.63694C20.5866 3.85662 20.5109 4.10473 20.3382 4.29658V4.29599Z" fill="#4A9CE9"/>
<path d="M20.6582 4.0073C20.8308 3.81545 20.9066 3.56734 21.0305 3.34766C21.044 3.35002 21.0581 3.35239 21.0716 3.35535C21.4915 3.8267 21.6894 4.39397 21.7686 5.01098C21.7945 5.21112 21.6571 5.40356 21.4774 5.42843C21.2489 5.46041 21.0722 5.34376 21.034 5.11875C20.9788 4.79484 20.9318 4.46976 20.7569 4.18316C20.7293 4.13757 20.6934 4.09671 20.6611 4.05349C20.6582 4.03809 20.6576 4.0227 20.6588 4.00671L20.6582 4.0073Z" fill="#95CCFF"/>
</g>
<defs>
<clipPath id="clip0_1009_8229">
<rect width="24" height="24" fill="white" transform="translate(0.5)"/>
</clipPath>
</defs>
</svg>
