<svg width="48" height="48" viewBox="0 0 48 48" fill="none" xmlns="http://www.w3.org/2000/svg">
<path d="M43.9998 20H3.99976V38C3.99976 39.5913 4.6319 41.1174 5.75712 42.2426C6.88233 43.3679 8.40846 44 9.99976 44H37.9998C39.5911 44 41.1172 43.3679 42.2424 42.2426C43.3676 41.1174 43.9998 39.5913 43.9998 38V20ZM13.9998 16C13.4693 16 12.9606 15.7893 12.5855 15.4142C12.2105 15.0391 11.9998 14.5304 11.9998 14V6C11.9998 5.46957 12.2105 4.96086 12.5855 4.58579C12.9606 4.21071 13.4693 4 13.9998 4C14.5302 4 15.0389 4.21071 15.414 4.58579C15.789 4.96086 15.9998 5.46957 15.9998 6V14C15.9998 14.5304 15.789 15.0391 15.414 15.4142C15.0389 15.7893 14.5302 16 13.9998 16ZM33.9998 16C33.4693 16 32.9606 15.7893 32.5855 15.4142C32.2105 15.0391 31.9998 14.5304 31.9998 14V6C31.9998 5.46957 32.2105 4.96086 32.5855 4.58579C32.9606 4.21071 33.4693 4 33.9998 4C34.5302 4 35.0389 4.21071 35.414 4.58579C35.789 4.96086 35.9998 5.46957 35.9998 6V14C35.9998 14.5304 35.789 15.0391 35.414 15.4142C35.0389 15.7893 34.5302 16 33.9998 16Z" fill="#2278C8"/>
<path d="M37.9998 8H35.9998V14C35.9998 14.5304 35.789 15.0391 35.414 15.4142C35.0389 15.7893 34.5302 16 33.9998 16C33.4693 16 32.9606 15.7893 32.5855 15.4142C32.2105 15.0391 31.9998 14.5304 31.9998 14V8H15.9998V14C15.9998 14.5304 15.789 15.0391 15.414 15.4142C15.0389 15.7893 14.5302 16 13.9998 16C13.4693 16 12.9606 15.7893 12.5855 15.4142C12.2105 15.0391 11.9998 14.5304 11.9998 14V8H9.99976C8.40846 8 6.88233 8.63214 5.75712 9.75736C4.6319 10.8826 3.99976 12.4087 3.99976 14V20H43.9998V14C43.9998 12.4087 43.3676 10.8826 42.2424 9.75736C41.1172 8.63214 39.5911 8 37.9998 8Z" fill="#B6DCFF"/>
</svg>
