<svg width="16" height="15" viewBox="0 0 16 15" fill="none" xmlns="http://www.w3.org/2000/svg">
<path d="M11.2985 1.23438C11.5212 1.23438 11.7417 1.27823 11.9474 1.36345C12.1531 1.44866 12.34 1.57356 12.4975 1.73101C12.655 1.88847 12.7799 2.07539 12.8651 2.28111C12.9503 2.48684 12.9941 2.70733 12.9941 2.93V11.8706C12.9941 12.0933 12.9503 12.3138 12.8651 12.5195C12.7799 12.7252 12.655 12.9121 12.4975 13.0696C12.34 13.227 12.1531 13.3519 11.9474 13.4371C11.7417 13.5224 11.5212 13.5662 11.2985 13.5662H4.82429C4.60157 13.5662 4.38102 13.5223 4.17526 13.4371C3.9695 13.3518 3.78254 13.2269 3.62508 13.0694C3.46762 12.9118 3.34273 12.7248 3.25756 12.5191C3.17238 12.3133 3.12858 12.0927 3.12866 11.87V2.93C3.12866 2.1531 3.6503 1.49951 4.36185 1.29788V2.31341C4.1744 2.45399 4.05355 2.6772 4.05355 2.93V11.8694C4.05355 12.2948 4.39884 12.6401 4.82429 12.6401H11.2985C11.724 12.6401 12.0692 12.2948 12.0692 11.8694V2.93C12.0692 2.50455 11.724 2.15926 11.2985 2.15926H9.91118V1.23438H11.2985ZM9.29458 1.23438V6.25282C9.29458 6.71341 8.80131 6.88606 8.49918 6.7239L8.44862 6.69183L7.13774 5.89951L5.85647 6.67087C5.54817 6.89284 5.0364 6.75719 4.98276 6.32681L4.97844 6.25344V1.23438H9.29458ZM8.3697 2.15926H5.90333V5.5647L6.87323 4.97956C6.9505 4.93848 7.03621 4.91577 7.12368 4.9132C7.21116 4.91064 7.29805 4.92828 7.3776 4.96476L8.37031 5.56532V2.15926H8.3697Z" fill="#465365"/>
</svg>
