<svg width="13" height="13" viewBox="0 0 13 13" fill="none" xmlns="http://www.w3.org/2000/svg">
<g clip-path="url(#clip0_951_19501)">
<path d="M2.81917 2.46639L3.40348 3.05069M1.2063 6.36088H2.0324M2.81917 10.2554L3.40348 9.67107M10.6082 10.2554L10.0239 9.67107M12.221 6.36088H11.3949M10.6082 2.46639L10.0239 3.05069M6.71367 0.853516V1.67962" stroke="#B6DCFF" stroke-width="1.04902" stroke-linecap="round" stroke-linejoin="round"/>
<path d="M6.71469 9.50702C8.45266 9.50702 9.86176 8.09792 9.86176 6.35996C9.86176 4.62199 8.45266 3.21289 6.71469 3.21289C4.97673 3.21289 3.56763 4.62199 3.56763 6.35996C3.56763 8.09792 4.97673 9.50702 6.71469 9.50702Z" fill="#B6DCFF" stroke="#B6DCFF" stroke-width="1.04902" stroke-linejoin="round"/>
<path d="M6.71313 11.8671V11.041" stroke="#B6DCFF" stroke-width="1.04902" stroke-linecap="round" stroke-linejoin="round"/>
</g>
<defs>
<clipPath id="clip0_951_19501">
<rect width="12.5883" height="12.5883" fill="white" transform="translate(0.420166 0.0644531)"/>
</clipPath>
</defs>
</svg>
