<svg width="12" height="12" viewBox="0 0 12 12" fill="none" xmlns="http://www.w3.org/2000/svg">
<path d="M3.60537 1.73047H4.57281L3.6026 4.50513H1.93225L3.19195 1.98574C3.23039 1.90902 3.28942 1.84451 3.36243 1.79943C3.43545 1.75435 3.51956 1.73047 3.60537 1.73047ZM1.96555 5.43002L4.75316 9.76497L3.57763 5.43002H1.96555ZM4.53581 5.43002L5.95089 10.651C5.97597 10.7457 6.03165 10.8294 6.10927 10.8892C6.18689 10.9489 6.28209 10.9813 6.38004 10.9813C6.47798 10.9813 6.57318 10.9489 6.6508 10.8892C6.72842 10.8294 6.78411 10.7457 6.80919 10.651L8.22797 5.43002H4.53581ZM9.18615 5.43002L8.00784 9.76313L10.7945 5.43002H9.18522H9.18615ZM10.8278 4.50513H9.16025L8.18912 1.73047H9.1547C9.24067 1.7303 9.32498 1.7541 9.39817 1.79919C9.47137 1.84428 9.53054 1.90888 9.56905 1.98574L10.8278 4.50513ZM8.1808 4.50513H4.58298L5.55226 1.73047H7.20781L8.1808 4.50513Z" fill="#B6DCFF"/>
</svg>
