<svg width="23" height="22" viewBox="0 0 23 22" fill="none" xmlns="http://www.w3.org/2000/svg">
<g clip-path="url(#clip0_951_19523)">
<path d="M13.3444 5.68085L13.4695 10.4877L13.4856 11.1658L14.127 11.3808L16.2757 12.0988C16.4505 12.1563 16.6067 12.2595 16.7281 12.3978C16.8247 12.5036 16.8943 12.6311 16.9311 12.7696C16.9679 12.9081 16.9707 13.0534 16.9394 13.1932C16.9114 13.3146 16.8587 13.4289 16.7845 13.529C16.7103 13.6291 16.6162 13.7128 16.5082 13.7749C16.4001 13.8369 16.2805 13.876 16.1566 13.8897C16.0328 13.9034 15.9075 13.8914 15.7885 13.8544L6.89652 10.879C6.73914 10.8305 6.59897 10.7378 6.49261 10.612C6.39074 10.4922 6.32186 10.3478 6.29276 10.1933C6.26365 10.0387 6.27533 9.87916 6.32663 9.73046L6.47393 9.28808L6.92118 7.95287L7.35378 6.6486L8.03953 6.87551L8.14092 8.74165L8.17976 9.39412L8.80232 9.60248L10.1335 10.0471L11.0559 10.3549L11.3611 9.43657L12.6801 5.45654L13.3444 5.68085ZM14.193 4.99398C14.1373 4.93402 14.0681 4.88825 13.9911 4.8605L12.5214 4.37081C12.4049 4.33694 12.2799 4.34806 12.1712 4.40195C12.0625 4.45585 11.978 4.5486 11.9344 4.66185L10.4453 9.10986L9.11014 8.66262L8.97122 6.47568C8.96499 6.37111 8.92502 6.27137 8.85729 6.19145C8.80158 6.13149 8.73234 6.08572 8.65534 6.05797L7.16959 5.57506C7.05311 5.53644 6.92632 5.5435 6.81484 5.59479C6.70337 5.64609 6.61553 5.7378 6.56909 5.85138L5.97454 7.62897L5.52996 8.96014L5.37999 9.40656C5.27545 9.7189 5.25509 10.0533 5.32096 10.376C5.38684 10.6987 5.53662 10.9984 5.75521 11.2448C5.97364 11.4898 6.25202 11.6738 6.56303 11.7787L15.451 14.7514C15.8411 14.8865 16.265 14.888 16.656 14.7555C17.047 14.623 17.3828 14.3642 17.6104 14.0198C17.838 13.6754 17.9446 13.265 17.9132 12.8534C17.8819 12.4418 17.7144 12.0523 17.4372 11.7464C17.2006 11.4825 16.9002 11.284 16.5648 11.1697L14.4201 10.4544L14.3017 5.30375C14.3026 5.19099 14.2642 5.08143 14.193 4.99398Z" fill="#465365"/>
</g>
<path d="M4.54736 17.3438H19.1144V18.3842H4.54736V17.3438Z" fill="#465365"/>
<defs>
<clipPath id="clip0_951_19523">
<rect width="15.4933" height="15.4933" fill="white" transform="translate(9.27393) rotate(33.4631)"/>
</clipPath>
</defs>
</svg>
