<svg width="72" height="72" viewBox="0 0 72 72" fill="none" xmlns="http://www.w3.org/2000/svg">
<g style="mix-blend-mode:luminosity" clip-path="url(#clip0_1009_7996)">
<path d="M-7.60721e-05 45.7025C0.319023 44.8266 0.337793 43.8907 0.525499 42.9867C2.49265 33.5227 10.2411 26.0224 19.8085 24.3588C20.0375 24.3195 20.2721 24.3176 20.5049 24.2988C19.114 26.5251 17.9596 28.8658 17.1186 31.3565C17.068 31.5046 16.9347 31.6603 17.0567 31.816C17.1937 31.9904 17.3514 31.8572 17.4978 31.8029C20.1013 30.8163 22.7592 30.3512 25.5654 30.6288C27.8047 30.8501 29.9314 31.4109 31.9023 32.448C35.5044 34.3405 38.2017 37.135 39.8704 40.8823C41.4903 44.5209 41.8545 48.2813 40.8878 52.1449C39.9661 55.8304 38.0741 58.9194 35.1402 61.3745C33.2819 62.9293 31.2172 64.0302 28.9047 64.726C27.6151 65.1143 26.2993 65.3018 24.8596 65.4462C25.8545 66.5078 26.8812 67.378 27.9511 68.1939C29.0961 69.0679 30.288 69.88 31.4593 70.7184C30.502 71.2135 29.4509 71.3786 28.4129 71.5736C27.5138 71.7424 26.6053 71.8587 25.7005 71.9994H21.7681C21.1018 71.6918 20.3678 71.7274 19.6677 71.6074C10.5734 70.0582 2.78172 62.7211 0.683171 53.741C0.420384 52.6138 0.388474 51.4416 -0.00195312 50.3425V45.7025H-7.60721e-05ZM16.7132 32.2023C16.6025 32.2342 16.4842 32.2511 16.381 32.2999C14.0741 33.4083 12.1125 34.9538 10.4945 36.9418C7.28101 40.8898 6.0628 45.4136 6.7423 50.4232C7.4293 55.4796 9.95018 59.4614 14.1116 62.3872C16.5443 64.0977 19.2848 65.0393 22.2261 65.3693C23.0126 65.4575 23.8178 65.3825 24.7395 65.3825C22.5302 62.9837 20.6269 60.5736 19.236 57.794C20.2665 57.794 21.2951 57.8091 22.3256 57.7865C22.7461 57.7772 22.9244 57.9103 22.8962 58.3473C22.8681 58.79 22.8887 59.2382 22.8906 59.6827C22.8906 60.583 23.2341 61.0218 23.9342 61.0294C24.732 61.0369 24.9985 60.6974 25.0004 59.6658C25.0004 59.197 25.0135 58.7281 24.9966 58.2611C24.9835 57.9028 25.113 57.7153 25.4734 57.6084C27.7428 56.9426 29.5598 54.6713 29.3777 52.0286C29.2407 50.0387 27.9793 48.1407 26.1247 47.3473C25.2087 46.9553 24.2514 47.0341 23.3261 46.8259C21.526 46.4227 20.6757 45.0967 20.6926 43.5681C20.7132 41.7113 22.2468 40.3834 23.9436 40.3609C25.3702 40.3422 26.7986 40.3609 28.227 40.3553C28.9216 40.3516 29.3495 39.9408 29.3533 39.3031C29.357 38.5848 29.0304 38.2566 28.2646 38.2472C27.4218 38.2359 26.579 38.2209 25.7381 38.2528C25.2031 38.2716 24.9535 38.1009 24.9948 37.5345C25.0285 37.045 25.006 36.5517 25.0004 36.0584C24.9948 35.417 24.5856 34.9162 24.0506 34.8825C23.403 34.8431 22.9169 35.3082 22.8943 36.0191C22.8774 36.5817 22.8756 37.1444 22.8943 37.7052C22.9094 38.1159 22.778 38.2903 22.3444 38.4254C19.5738 39.2806 17.9783 42.1802 18.6916 44.9672C19.3186 47.4148 21.4002 49.0372 23.9661 49.0747C25.6874 49.1009 27.1083 50.4157 27.2416 52.1074C27.3711 53.7429 26.1811 55.2358 24.4992 55.5547C23.0839 55.8229 21.6555 55.6484 20.2327 55.6634C19.5738 55.6709 18.9882 55.7272 18.5321 56.2486C18.4119 56.0517 18.2674 55.866 18.1736 55.6578C16.4861 51.9536 15.5551 48.0488 15.3261 43.9976C15.1646 41.1337 15.3655 38.2772 15.9812 35.4545C16.2177 34.3667 16.6569 33.3239 16.7094 32.1967C16.7207 32.178 16.732 32.1573 16.7432 32.1386C16.732 32.1592 16.7207 32.178 16.7094 32.1986L16.7132 32.2023Z" fill="#FFCA3D"/>
<path d="M67.5566 71.9991H37.2178C37.2947 71.9147 37.3567 71.8021 37.4524 71.7496C40.4444 70.1123 42.9447 67.886 45.1145 65.279C46.9822 63.0359 48.4106 60.5283 49.4393 57.7938C55.4045 57.8632 61.3717 57.6587 67.3351 57.9044C69.4655 58.0882 71.4139 59.7931 71.7574 61.965C72.0634 63.9043 72.0221 65.8773 71.7668 67.826C71.6166 68.9738 70.9747 69.8985 70.1263 70.6843C69.3886 71.3689 68.4594 71.6559 67.5528 71.9972L67.5566 71.9991Z" fill="#FFCA3D"/>
<path d="M49.7192 0C51.1439 0.547657 51.9172 1.8249 52.8933 2.86582C54.0758 4.12806 55.2021 5.44093 56.3696 6.71817C57.0641 7.47777 57.3307 8.31801 56.8877 9.28578C56.4578 10.2254 55.677 10.5724 54.6709 10.563C54.0758 10.5574 53.2837 10.2854 52.9383 10.6999C52.6455 11.0525 52.8351 11.814 52.8332 12.3954C52.8314 13.3538 52.8482 14.3122 52.8558 15.2706C52.8445 17.3769 52.8351 19.4831 52.822 21.5912C52.8126 23.1085 51.9529 23.9844 50.4362 24.005C49.5015 24.0181 48.5648 24.02 47.63 24.005C46.0815 23.9787 45.2274 23.0935 45.2218 21.533C45.2124 19.4493 45.2049 17.3656 45.1955 15.2838C45.203 13.8583 45.1993 12.4329 45.2255 11.0075C45.233 10.6155 45.0716 10.5349 44.7281 10.5499C44.2382 10.5705 43.7483 10.5461 43.2584 10.5555C42.2992 10.5743 41.5709 10.1767 41.1749 9.30266C40.7694 8.40991 40.9271 7.57154 41.5897 6.83633C42.9337 5.34341 44.2757 3.8486 45.6197 2.3538C46.0421 1.88491 46.4775 1.42728 46.8811 0.945271C47.2678 0.482013 47.8346 0.311339 48.3152 0.00187554H49.7192V0Z" fill="white"/>
<path d="M49.4412 57.7948C48.4107 60.5274 46.9842 63.0369 45.1165 65.28C42.9466 67.887 40.4464 70.1133 37.4544 71.7506C37.3586 71.8032 37.2967 71.9157 37.2197 72.0001H25.7021C26.6069 71.8594 27.5154 71.7413 28.4145 71.5743C29.4525 71.3793 30.5037 71.2142 31.4609 70.7191C31.7068 70.7716 31.9227 70.6553 32.1367 70.5765C36.9945 68.7535 40.9063 65.7227 43.8439 61.4277C44.6379 60.2667 45.1972 58.982 45.9255 57.791C47.0968 57.791 48.2681 57.7929 49.4394 57.7948H49.4412Z" fill="#FAAA51"/>
<path d="M45.1975 15.2807C45.2069 17.3644 45.2144 19.4482 45.2238 21.53C45.2295 23.0923 46.0835 23.9776 47.6321 24.002C48.5669 24.017 49.5035 24.0151 50.4383 24.002C51.9549 23.9813 52.8165 23.1036 52.824 21.5881C52.8353 19.4819 52.8465 17.3757 52.8578 15.2676C57.3496 15.2751 61.8395 15.292 66.3313 15.2863C67.358 15.2863 68.3341 15.4307 69.2332 15.9465C70.5622 16.708 71.4669 17.8314 71.7485 19.3319C72.0957 21.183 72.0507 23.0829 71.8236 24.9303C71.5307 27.3048 70.0253 28.7602 67.7072 29.3566C67.5289 29.4016 67.3524 29.4541 67.1741 29.5029C66.7686 29.6211 66.4007 29.3847 66.0009 29.3866C58.6541 29.3997 51.3074 29.3997 43.9606 29.4016C43.9174 29.3941 43.8742 29.3885 43.8311 29.3847C43.4087 28.5764 42.6673 28.0812 42.0122 27.4961C39.7823 25.508 37.3027 23.9194 34.5434 22.7847C31.863 21.6819 29.0962 20.9054 26.1736 20.8117C25.9803 17.9308 28.2478 15.3576 31.1272 15.3182C35.0464 15.2638 38.9695 15.2995 42.8888 15.2938C43.6584 15.2938 44.4298 15.2863 45.1994 15.2807H45.1975Z" fill="#FDE851"/>
<path d="M45.926 57.7888C45.1958 58.9798 44.6383 60.2664 43.8443 61.4255C40.9049 65.7205 36.995 68.7532 32.1372 70.5744C31.9232 70.655 31.7073 70.7694 31.4614 70.7169C30.2901 69.8785 29.0982 69.0664 27.9532 68.1924C26.8852 67.3766 25.8565 66.5063 24.8617 65.4448C26.3014 65.2985 27.6172 65.1128 28.9068 64.7246C31.2174 64.0287 33.284 62.9259 35.1423 61.373C38.078 58.9179 39.9682 55.8289 40.8899 52.1435C41.8565 48.2817 41.4924 44.5194 39.8725 40.8809C38.2038 37.1335 35.5065 34.339 31.9044 32.4466C29.9335 31.4113 27.8068 30.8505 25.5675 30.6273C22.7613 30.3497 20.1034 30.8149 17.4999 31.8014C17.3516 31.8577 17.1939 31.989 17.0588 31.8145C16.9368 31.6589 17.0701 31.5032 17.1207 31.355C17.9598 28.8643 19.116 26.5236 20.5069 24.2974C22.0687 23.9429 23.6529 24.0254 25.2352 24.0404C25.5393 24.0442 25.8415 24.0479 26.1456 24.0517C27.1254 24.2148 28.1109 24.3424 29.0813 24.5468C32.9068 25.3533 36.2873 27.0919 39.3244 29.5301C39.3507 29.5695 39.3694 29.6164 39.4032 29.6445C42.8345 32.546 45.2859 36.1208 46.705 40.3857C47.0691 41.481 47.3282 42.612 47.636 43.7261C47.5271 44.315 47.7298 44.8814 47.7843 45.4553C48.0058 47.7828 47.9269 50.0841 47.5309 52.391C47.2099 54.261 46.5285 56.0071 45.9298 57.787L45.926 57.7888Z" fill="#FDE851"/>
<path d="M39.3204 29.5318C36.2833 27.0936 32.9046 25.355 29.0773 24.5485C28.1069 24.3441 27.1214 24.2165 26.1416 24.0534C26.151 22.973 26.1604 21.8909 26.1698 20.8105C29.0923 20.9024 31.8572 21.6789 34.5395 22.7836C37.2988 23.9183 39.7803 25.5069 42.0083 27.495C42.6634 28.0801 43.4049 28.5753 43.8272 29.3836C42.5902 29.3874 41.3532 29.3836 40.1181 29.3986C39.8497 29.4024 39.5531 29.2955 39.3204 29.5318Z" fill="#FFCA3D"/>
<path d="M19.24 57.7987C20.6309 60.5783 22.5343 62.9883 24.7436 65.3872C23.8219 65.3872 23.0167 65.4622 22.2302 65.374C19.2888 65.0421 16.5483 64.1005 14.1157 62.3919C9.95426 59.4661 7.4315 55.4843 6.74637 50.4279C6.06688 45.4164 7.28509 40.8945 10.4986 36.9465C12.1166 34.9584 14.0781 33.413 16.385 32.3046C16.4883 32.2558 16.6065 32.2389 16.7173 32.207C16.6666 33.3342 16.2274 34.377 15.989 35.4648C15.3733 38.2875 15.1725 41.1421 15.3339 44.0079C15.5629 48.0591 16.492 51.9621 18.1814 55.6681C18.2771 55.8763 18.4198 56.062 18.5399 56.2589C18.478 56.9097 18.63 57.4611 19.2419 57.8025L19.24 57.7987Z" fill="#FAAA51"/>
<path d="M19.2398 57.7989C18.6279 57.4557 18.4739 56.9043 18.5378 56.2554C18.9939 55.734 19.5777 55.6758 20.2384 55.6702C21.6593 55.6552 23.0877 55.8296 24.5049 55.5614C26.1849 55.2426 27.3768 53.7496 27.2473 52.1142C27.114 50.4224 25.6931 49.1058 23.9718 49.0814C21.4059 49.0421 19.3243 47.4216 18.6973 44.974C17.984 42.187 19.5795 39.2874 22.3501 38.4321C22.7837 38.2971 22.9151 38.1227 22.9 37.7119C22.8794 37.1511 22.8813 36.5866 22.9 36.0258C22.9226 35.315 23.4087 34.848 24.0563 34.8892C24.5913 34.9211 24.9986 35.4238 25.0061 36.0652C25.0117 36.5566 25.0342 37.0517 25.0005 37.5413C24.961 38.1095 25.2088 38.2802 25.7438 38.2596C26.5847 38.2296 27.4294 38.2427 28.2703 38.254C29.0361 38.2633 29.3627 38.5916 29.359 39.3099C29.3552 39.9476 28.9273 40.3583 28.2327 40.3621C26.8043 40.3696 25.3777 40.3489 23.9493 40.3677C22.2525 40.3902 20.7189 41.7181 20.6983 43.5749C20.6814 45.1053 21.5335 46.4294 23.3318 46.8327C24.2571 47.0409 25.2144 46.9621 26.1304 47.3541C27.985 48.1474 29.2464 50.0455 29.3834 52.0354C29.5636 54.678 27.7466 56.9493 25.4791 57.6151C25.1187 57.7202 24.9892 57.9096 25.0023 58.2678C25.0192 58.7367 25.008 59.2056 25.0061 59.6726C25.0042 60.7041 24.7377 61.0436 23.9399 61.0361C23.2398 61.0286 22.8982 60.5879 22.8963 59.6895C22.8963 59.245 22.8738 58.7967 22.9019 58.3541C22.9301 57.9171 22.7536 57.7839 22.3313 57.7933C21.3027 57.8158 20.2722 57.8008 19.2417 57.8008L19.2398 57.7989Z" fill="#FDE851"/>
<path d="M16.7129 32.2026C16.7242 32.182 16.7354 32.1632 16.7467 32.1426C16.7354 32.1613 16.7242 32.182 16.7129 32.2007V32.2026Z" fill="#FAAA51"/>
<path d="M67.1833 43.6236C68.9797 43.9312 70.4025 44.7921 71.2959 46.4275C71.5888 46.9658 71.814 47.5435 71.8459 48.1493C71.9398 49.9198 72.0768 51.7053 71.7915 53.457C71.4311 55.6721 70.0608 57.0618 67.8985 57.6564C67.6958 57.7126 67.4855 57.7351 67.3372 57.9058C61.3738 57.6601 55.4067 57.8646 49.4414 57.7952C50.5564 55.1225 51.0951 52.3186 51.2509 49.4453C51.3541 47.536 51.279 45.6192 50.9562 43.7249C50.9675 43.6799 50.975 43.6349 50.9787 43.5898C53.8318 43.5917 56.685 43.5917 59.5381 43.5973C62.0871 43.603 64.6362 43.6142 67.1833 43.6236Z" fill="#FDE851"/>
<path d="M67.1838 43.6239C64.6347 43.6145 62.0857 43.6033 59.5385 43.5977C56.6854 43.592 53.8323 43.592 50.9792 43.5902C50.936 43.5114 50.8684 43.4345 50.8553 43.3501C50.5005 40.835 49.6896 38.4587 48.6028 36.1799C47.4109 33.6817 45.8755 31.4085 43.959 29.4017C51.3058 29.3998 58.6526 29.4017 65.9993 29.3867C66.3992 29.3867 66.7671 29.6212 67.1725 29.503C69.6408 29.7318 71.6399 31.6149 71.8576 34.1262C71.9965 35.7279 72.004 37.3615 71.8539 38.9613C71.6155 41.4952 69.7966 43.2151 67.1838 43.6239Z" fill="#FFCA3D"/>
<path d="M50.9544 43.7246C51.2773 45.6189 51.3523 47.5338 51.2491 49.445C51.0933 52.3183 50.5546 55.1222 49.4396 57.7949C48.2683 57.7949 47.0971 57.793 45.9258 57.7911C46.5246 56.0131 47.2059 54.2651 47.5269 52.3952C47.923 50.0883 48.0018 47.787 47.7803 45.4595C47.7259 44.8856 47.5232 44.3192 47.632 43.7302C48.7395 43.7284 49.8469 43.7265 50.9544 43.7246Z" fill="#FFCA3D"/>
<path d="M50.9543 43.7253C49.8468 43.7271 48.7394 43.729 47.6319 43.7309C47.3241 42.6168 47.0669 41.4859 46.7009 40.3906C45.28 36.1237 42.8304 32.5489 39.3991 29.6494C39.3654 29.6212 39.3466 29.5725 39.3203 29.5349C39.5531 29.2986 39.8496 29.4055 40.1181 29.4018C41.355 29.3868 42.592 29.3905 43.8271 29.3868C43.8703 29.3905 43.9135 29.3962 43.9566 29.4037C45.8731 31.4105 47.4085 33.6836 48.6005 36.1818C49.6873 38.4606 50.4982 40.8369 50.8529 43.352C50.8642 43.4364 50.9336 43.5114 50.9768 43.5921C50.9731 43.6371 50.9655 43.6821 50.9543 43.7271V43.7253Z" fill="#FAAA51"/>
</g>
<defs>
<clipPath id="clip0_1009_7996">
<rect width="72" height="72" fill="white"/>
</clipPath>
</defs>
</svg>
