<svg width="72" height="64" viewBox="0 0 72 64" fill="none" xmlns="http://www.w3.org/2000/svg">
<g style="mix-blend-mode:luminosity" clip-path="url(#clip0_1009_8197)">
<path d="M22.9229 41.4595C23.1022 41.4538 23.2192 41.3395 23.3362 41.2234C24.6104 39.9549 25.8845 38.6883 27.1586 37.4199C28.0646 36.5374 28.9952 35.6793 29.8635 34.763C30.241 34.364 30.4486 34.3996 30.7865 34.7799C31.1754 35.2146 31.6322 35.5875 32.0588 35.9865C33.7198 37.6841 35.3998 39.3628 37.1439 40.9798C39.0655 42.8759 40.987 44.7721 42.9105 46.6663C44.0487 47.7943 45.185 48.9241 46.327 50.0483C46.9197 50.6316 47.4935 50.6035 48.0485 49.9639C49.7435 48.3395 51.4122 46.6907 52.9883 44.9519C55.4516 42.475 57.9149 39.998 60.3782 37.5211C60.7746 37.122 61.1483 36.6967 61.573 36.3294C61.9694 35.9865 62.0147 35.7598 61.5938 35.3626C60.3159 34.1541 59.0833 32.8988 57.8413 31.6528C57.6846 31.4954 57.4543 31.383 57.4203 31.0926C57.8337 31.0176 58.2396 30.9427 58.6473 30.8696C60.3461 30.7722 62.0317 30.5473 63.7117 30.2925C65.3633 30.1014 67.013 29.9103 68.6647 29.7211C69.6198 29.6124 70.5787 29.5262 71.53 29.3857C71.9793 29.3201 72.0378 29.4438 71.9868 29.8597C71.4753 34.141 70.9845 38.4242 70.4824 42.7073C70.4371 43.0952 70.3616 43.4792 70.2804 43.9908C68.5911 42.4375 67.2037 40.7081 65.5388 39.2579C65.4992 38.8438 65.082 38.6883 64.9159 38.3511C64.6951 37.9052 64.4308 37.9201 64.0778 38.2949C62.8283 39.6252 61.5107 40.8899 60.2479 42.2108C57.6091 44.9688 54.823 47.5863 52.1993 50.363C50.927 51.7083 49.5793 52.9824 48.2674 54.2883C47.5124 55.039 46.7492 55.0359 45.9778 54.2789C40.921 49.2969 35.9302 44.2474 30.8035 39.3366C30.4052 38.9563 30.2108 38.9506 29.8257 39.3404C28.2421 40.9367 26.6225 42.4975 25.0143 44.0713C24.3574 43.172 23.7591 42.2258 22.9266 41.467L22.9229 41.4595Z" fill="#b2ced9"/>
<path d="M22.9232 41.4591C23.7556 42.2198 24.354 43.1641 25.0108 44.0635C25.192 44.6555 25.5148 45.1802 25.8112 45.7179C26.3907 47.4267 26.7871 49.1579 26.7191 50.9847C26.536 55.8955 24.3426 59.6766 20.1107 62.1573C12.0526 66.8807 1.78412 62.0673 0.189107 52.8958C-1.02461 45.9203 3.7019 39.1058 10.7143 37.7231C10.9446 37.6781 11.1748 37.6275 11.4051 37.5807C13.1247 37.3577 14.8349 37.4401 16.5356 37.7605L16.528 37.7512C16.679 37.9441 16.9074 37.8636 17.1 37.9104L17.083 37.8992C18.5874 38.4313 20.0182 39.1114 21.3414 40.0033L22.9232 41.4591ZM23.8839 50.7187C23.9066 44.9422 19.1971 40.3293 13.5966 40.2731C7.53936 40.2131 2.85815 44.9441 2.86759 50.7411C2.87514 56.4464 7.51293 61.0874 13.2984 61.1549C19.148 61.2223 23.9141 56.4502 23.8839 50.7187Z" fill="#b2ced9"/>
<path d="M37.1437 40.9788C35.4015 39.3619 33.7216 37.6831 32.0586 35.9856C32.0643 35.7982 32.0756 35.6127 32.0756 35.4253C32.0756 23.6289 32.0756 11.8324 32.0737 0.0359152C33.6026 0.0265469 35.1316 0.0302942 36.6605 0.00218953C37.0815 -0.00530505 37.1721 0.165197 37.1664 0.5418C37.1494 1.82712 37.1607 3.11057 37.1607 4.39589C37.1607 16.4041 37.1607 28.4104 37.1607 40.4186C37.1607 40.606 37.1494 40.7915 37.1437 40.9788Z" fill="#7b98a3"/>
<path d="M32.0741 0.0366516C32.0741 11.8331 32.076 23.6296 32.076 35.4261C32.076 35.6134 32.0647 35.7989 32.059 35.9863C31.6324 35.5872 31.1737 35.2144 30.7868 34.7797C30.4489 34.4012 30.2413 34.3656 29.8638 34.7628C28.9955 35.679 28.0649 36.5372 27.1588 37.4196C27.1532 37.1854 27.14 36.9531 27.14 36.7189C27.14 24.7575 27.1456 12.7962 27.1211 0.834825C27.1211 0.141576 27.3117 -0.0251787 27.9799 0.00292601C29.3428 0.061009 30.7094 0.0310307 32.0741 0.0366516Z" fill="#6c8793"/>
<path d="M48.0482 49.9642C47.4957 50.6025 46.9219 50.6306 46.3267 50.0486C45.1847 48.9244 44.0484 47.7946 42.9102 46.6666C42.9139 36.0037 42.9158 25.3408 42.9253 14.6779C42.9253 13.4431 42.7516 13.6286 44.0163 13.6211C45.3093 13.6136 46.6004 13.6305 47.8934 13.638C47.8934 25.4064 47.8934 37.1729 47.8972 48.9412C47.8972 49.2879 47.8443 49.6457 48.05 49.9624L48.0482 49.9642Z" fill="#6c8793"/>
<path d="M48.0486 49.9638C47.8429 49.6452 47.8957 49.2892 47.8957 48.9426C47.8957 37.1742 47.8938 25.4078 47.892 13.6394C49.419 13.63 50.9461 13.6281 52.4731 13.6057C52.8337 13.6 52.9998 13.7199 52.9658 14.0891C52.9488 14.2745 52.9639 14.4619 52.9639 14.6493C52.9639 24.4466 52.9639 34.2457 52.9639 44.043C52.9639 44.3466 52.979 44.6482 52.9884 44.9518C51.4123 46.6924 49.7437 48.3412 48.0486 49.9656V49.9638Z" fill="#6c8793"/>
<path d="M63.7093 30.2909C62.0294 30.5476 60.3437 30.7724 58.6449 30.868C58.6449 20.8121 58.6468 10.7544 58.6279 0.698523C58.6279 0.134556 58.794 -0.00971479 59.3395 0.00714802C60.7949 0.0483682 62.2521 0.0333791 63.7093 0.0408736C63.7093 10.1248 63.7093 20.2069 63.7093 30.2909Z" fill="#6c8793"/>
<path d="M63.7099 30.2916C63.7099 20.2077 63.7099 10.1256 63.7099 0.0416205C65.2124 0.0322523 66.7168 0.028505 68.2193 0.00602127C68.5629 0.000400327 68.6818 0.140924 68.6573 0.463191C68.6422 0.648682 68.6554 0.836047 68.6554 1.02341C68.6573 10.5884 68.6591 20.1533 68.661 29.7202C67.0094 29.9113 65.3596 30.1024 63.708 30.2916H63.7099Z" fill="#7b98a3"/>
<path d="M16.3977 13.6374C17.9021 13.6281 19.4065 13.6318 20.909 13.6C21.3583 13.5906 21.4621 13.7686 21.4583 14.177C21.4413 15.927 21.4508 17.677 21.4508 19.427C21.4508 25.6344 21.4508 31.8418 21.447 38.0492C21.447 38.3208 21.532 38.6113 21.3526 38.8642C20.6561 38.6843 19.9615 38.497 19.2631 38.3302C18.542 38.1578 17.8512 37.8412 17.0848 37.8974C17.0848 37.8974 17.1018 37.9086 17.0999 37.9086C16.964 37.6595 16.728 37.7662 16.528 37.7494L16.5355 37.7588C16.3694 37.4571 16.3996 37.1273 16.3996 36.8013C16.3996 29.08 16.3996 21.3587 16.3977 13.6374Z" fill="#7b98a3"/>
<path d="M16.397 13.638C16.397 21.3593 16.397 29.0806 16.3988 36.8019C16.3988 37.1279 16.3686 37.4577 16.5347 37.7593C14.834 37.439 13.1258 37.3565 11.4043 37.5795C11.4062 29.8975 11.41 22.2156 11.4137 14.5336C11.4137 13.6193 11.4137 13.6174 12.3047 13.6193C13.6694 13.623 15.0322 13.6324 16.397 13.6399V13.638Z" fill="#6c8793"/>
<path d="M25.813 45.7185C25.5167 45.1808 25.1939 44.6562 25.0127 44.0641C26.619 42.4902 28.2405 40.9314 29.8241 39.3331C30.2092 38.9434 30.4036 38.949 30.8019 39.3294C35.9286 44.2421 40.9194 49.2897 45.9762 54.2717C46.7463 55.0299 47.5096 55.033 48.2658 54.2811C49.5796 52.9752 50.9273 51.7011 52.1977 50.3558C54.8214 47.5809 57.6075 44.9634 60.2463 42.2036C61.5091 40.8826 62.8267 39.6179 64.0762 38.2876C64.4292 37.9129 64.6935 37.8979 64.9143 38.3439C65.0804 38.6811 65.4995 38.8366 65.5372 39.2507C60.6748 44.1634 55.8124 49.0742 50.9519 53.9869C49.8646 55.0868 48.7623 56.1716 47.7015 57.2977C47.3239 57.6986 47.1163 57.7717 46.6746 57.3351C41.4101 52.1264 36.1174 46.9495 30.8529 41.7427C30.4244 41.3192 30.2168 41.2836 29.7845 41.737C28.4915 43.0935 27.14 44.3939 25.813 45.7167V45.7185Z" fill="#b2ced9"/>
<path d="M17.085 37.8992C17.8513 37.843 18.5441 38.1596 19.2632 38.332C19.9616 38.5006 20.6563 38.688 21.3528 38.866C21.349 39.2445 21.3452 39.6229 21.3433 40.0033C20.0202 39.1095 18.5894 38.4313 17.085 37.8992Z" fill="#6c8793"/>
<path d="M23.8855 50.7196C23.9176 56.4511 19.1515 61.2232 13.2999 61.1558C7.5145 61.0883 2.87671 56.4473 2.86915 50.7421C2.85972 44.9469 7.54093 40.214 13.5982 40.274C19.1986 40.3302 23.9063 44.9431 23.8855 50.7196ZM11.8805 48.2838C11.8843 47.5082 12.443 46.8973 13.2112 46.8299C14.1059 46.7531 14.6986 47.2365 14.8553 48.1733C14.9761 48.8909 15.331 49.2282 15.884 49.1532C16.4541 49.0764 16.7542 48.5668 16.6334 47.8716C16.4314 46.7118 15.8161 45.8387 14.7345 45.3497C14.3721 45.1848 14.2437 45.0031 14.2702 44.6227C14.3136 44.0232 14.0229 43.6241 13.4056 43.5566C12.8885 43.5004 12.4883 43.9182 12.4939 44.5665C12.4977 45.0143 12.326 45.1998 11.9352 45.3872C10.5743 46.0411 9.88908 47.4276 10.1533 48.8572C10.4403 50.4123 11.4954 51.3304 13.2962 51.5571C13.7794 51.6171 14.2267 51.7107 14.5363 52.1192C14.944 52.6588 14.9988 53.2509 14.6533 53.8223C14.3098 54.3882 13.7605 54.6767 13.0923 54.5268C12.3882 54.3694 11.9635 53.9104 11.8729 53.1666C11.788 52.4808 11.3784 52.1098 10.8442 52.1904C10.3062 52.271 10.0155 52.7637 10.108 53.4233C10.2572 54.4819 10.7649 55.3344 11.7106 55.8421C12.2259 56.1176 12.5713 56.3461 12.509 57.0169C12.4619 57.5097 12.8337 57.8619 13.3452 57.8788C13.8492 57.8938 14.2796 57.5734 14.2437 57.0862C14.1909 56.3724 14.4872 56.0257 15.1064 55.8121C15.2536 55.7616 15.3782 55.6304 15.5028 55.5255C16.5315 54.6411 16.9109 53.2996 16.4956 52.0386C16.0804 50.7777 14.8987 49.8858 13.5397 49.8034C12.4996 49.7415 11.8767 49.1719 11.8805 48.2876V48.2838Z" fill="#b2ced9"/>
<path d="M16.5273 37.7515C16.7293 37.7684 16.9653 37.6597 17.0993 37.9108C16.9067 37.8658 16.6784 37.9445 16.5273 37.7515Z" fill="#6c8793"/>
<path d="M11.8803 48.2829C11.8765 49.1672 12.4994 49.7368 13.5394 49.7987C14.8985 49.8811 16.0801 50.773 16.4954 52.0339C16.9126 53.2949 16.5313 54.6364 15.5025 55.5208C15.3779 55.6276 15.2553 55.7569 15.1061 55.8074C14.487 56.0192 14.1925 56.3677 14.2435 57.0815C14.2794 57.5687 13.8509 57.8891 13.345 57.8741C12.8335 57.8572 12.4635 57.505 12.5088 57.0122C12.573 56.3414 12.2257 56.1128 11.7104 55.8374C10.7647 55.3315 10.2569 54.4772 10.1078 53.4185C10.0153 52.7571 10.306 52.2663 10.844 52.1857C11.3763 52.1051 11.7878 52.4761 11.8727 53.1619C11.9652 53.9057 12.388 54.3647 13.0921 54.5221C13.7584 54.672 14.3096 54.3835 14.6531 53.8176C14.9985 53.2462 14.9438 52.6541 14.5361 52.1145C14.2284 51.7079 13.7792 51.6142 13.2959 51.5524C11.4952 51.3257 10.44 50.4076 10.1531 48.8525C9.88885 47.421 10.574 46.0364 11.935 45.3825C12.3257 45.1951 12.4975 45.0096 12.4937 44.5618C12.4881 43.9135 12.8882 43.4957 13.4054 43.5519C14.0227 43.6194 14.3133 44.0185 14.2699 44.618C14.2435 44.9984 14.3719 45.1801 14.7343 45.345C15.8159 45.834 16.4312 46.7071 16.6332 47.8669C16.754 48.5621 16.4539 49.0717 15.8838 49.1485C15.3289 49.2235 14.9759 48.8862 14.8551 48.1686C14.6965 47.2299 14.1057 46.7465 13.211 46.8252C12.4428 46.8926 11.8821 47.5034 11.8803 48.2791V48.2829Z" fill="#FEFEFE"/>
</g>
<defs>
<clipPath id="clip0_1009_8197">
<rect width="72" height="64" fill="white"/>
</clipPath>
</defs>
</svg>
