<svg width="66" height="72" viewBox="0 0 66 72" fill="none" xmlns="http://www.w3.org/2000/svg">
<g style="mix-blend-mode:luminosity" clip-path="url(#clip0_1009_8044)">
<path d="M61.2426 19.9816C61.4436 21.6023 60.3944 58.4914 60.9071 60.0445C52.034 60.0445 13.8609 60.0502 4.98785 60.0445C2.07996 60.0408 0 57.9099 0 54.9555C0 53.7607 0 18.8936 0.0387227 17.6856C0.2434 18.2315 16.5991 17.1942 16.9015 17.6856C17.9304 19.3532 46.434 16.3576 48.2687 16.3613C56.7508 16.382 52.7605 19.9816 61.2426 19.9797V19.9816Z" fill="#8cfff8"/>
<path d="M61.2387 41.655C62.5368 43.2382 63.7502 44.8851 64.5025 46.8209C67.1909 53.7332 66.2745 60.1089 61.5964 65.8282C58.8434 69.1915 55.2201 71.0823 51.0104 71.8438C50.7006 71.9001 50.3613 71.7744 50.0829 72.0033H46.3582C46.0594 71.7313 45.6648 71.8138 45.32 71.7444C38.8773 70.4464 34.391 66.7154 31.8408 60.5535C31.7689 60.3809 31.686 60.214 31.6085 60.0452C31.0959 58.492 30.823 56.8863 30.6202 55.2675C30.5409 52.4539 30.8894 49.7171 31.9773 47.1023C32.8569 44.9864 34.0388 43.0843 35.6449 41.4618C35.8348 41.2686 36.093 41.1185 36.1427 40.8109C36.731 40.4658 37.2196 39.9949 37.6935 39.5091C38.5841 39.0758 39.3401 38.4193 40.2326 37.9841C46.159 35.0954 51.9582 35.2736 57.6357 38.6894C57.7334 38.7475 57.8422 38.7869 57.9455 38.8338C59.0887 39.7192 60.2264 40.6158 61.2406 41.6587L61.2387 41.655ZM47.1732 67.1281C48.3404 67.3495 49.4965 67.2144 50.6453 67.0006C53.52 66.466 55.9393 65.076 57.8846 62.8607C60.6911 59.6663 61.7993 55.9053 61.0506 51.7054C60.2227 47.0535 57.5693 43.7446 53.3319 41.8238C51.3829 40.9403 49.3177 40.5727 47.1732 40.8728C40.535 41.3943 35.3296 47.1454 35.324 53.9639C35.3185 60.8386 40.5 66.5954 47.1732 67.1262V67.1281Z" fill="#2fc6bd"/>
<path d="M17.7972 0C18.8132 0.452063 19.6412 1.08608 19.9343 2.25281C20.0726 2.80429 19.9731 3.3614 20.0026 3.91663C20.0192 4.21863 20.0173 4.52063 20.0247 4.82263C20.0173 6.29512 20.045 7.76949 19.997 9.2401C19.9233 11.4685 17.4376 12.7553 15.5771 11.5529C16.5433 10.6057 16.7831 9.44081 16.7111 8.11088C16.6355 6.71342 16.654 5.30846 16.7056 3.90913C16.7535 2.60358 16.689 1.37682 15.4941 0.575865C15.767 0.211963 16.1709 0.243852 16.418 0L17.7972 0Z" fill="#8cfff8"/>
<path d="M42.4639 11.4066C43.5352 10.9489 43.8099 9.95477 43.8505 8.95498C43.9298 6.97228 43.8837 4.98208 43.8689 2.99562C43.8634 2.22093 43.5776 1.50813 43.0595 0.966027C42.5542 0.438933 42.746 0.264485 43.3029 0.123802C43.3619 0.108795 43.408 0.043143 43.4614 0C43.9206 0 44.3816 0 44.8407 0C45.8088 0.468945 46.7381 1.01667 46.9815 2.17966C47.1069 2.78554 47.0276 3.43456 47.0534 4.06482C47.0626 4.31242 46.9686 4.58629 47.1973 4.79075C47.1862 5.25782 47.177 5.72488 47.1604 6.19195C47.1217 7.33431 47.2599 8.48416 47.046 9.62088C46.6441 11.7705 44.0939 12.7647 42.4657 11.4066H42.4639Z" fill="#8cfff8"/>
<path d="M42.4639 11.4062C44.0921 12.7643 46.6423 11.7701 47.0442 9.62048C47.2563 8.48376 47.1198 7.3339 47.1586 6.19155C47.1733 5.72448 47.1825 5.25741 47.1954 4.79034C50.273 4.78659 53.3505 4.77721 56.4262 4.77909C59.1866 4.78096 61.2555 6.87809 61.2591 9.69176C61.2628 13.6703 61.2499 17.6488 61.2426 21.6274C60.1417 21.6386 59.0427 21.6499 57.9419 21.6611C57.645 21.6442 57.3482 21.6124 57.0531 21.6124C38.3464 21.6105 19.6415 21.6105 0.93478 21.6105C0.313988 21.6092 0.00359218 21.2816 0.00359218 20.6276C0.00359218 17.0448 -9.56927e-05 13.4602 0.00359218 9.87746C0.00728005 6.84808 2.00611 4.8016 4.97116 4.7941C7.79791 4.78659 10.6247 4.8091 13.4514 4.77909C14.0101 4.77346 14.1447 4.95166 14.13 5.49001C14.0968 6.63611 14.1097 7.78597 14.1411 8.93207C14.1724 10.0482 14.5707 10.9804 15.5775 11.5525C17.4362 12.7549 19.9236 11.4681 19.9974 9.2397C20.0453 7.76908 20.0177 6.29472 20.025 4.82223C21.7915 4.81285 23.558 4.79597 25.3245 4.7941C30.3492 4.79034 35.3758 4.81098 40.4005 4.77159C41.1326 4.76596 41.2746 4.99293 41.2451 5.67009C41.1934 6.81431 41.2174 7.96229 41.2469 9.10652C41.2727 10.0688 41.6415 10.8698 42.4639 11.4062Z" fill="#2ac0b7"/>
<path d="M57.9423 21.6607C59.0431 21.6495 60.1421 21.6382 61.2429 21.627C61.2429 28.3029 61.2429 34.9788 61.2392 41.6547C60.2251 40.6117 59.0892 39.7151 57.9441 38.8297C57.9441 33.1067 57.9423 27.3837 57.9404 21.6607H57.9423Z" fill="#8cfff8"/>
<path d="M17.9344 45.6172C18.5927 45.7785 18.8638 46.2474 18.8767 46.8927C18.8914 47.6374 18.897 48.3839 18.8748 49.1305C18.8564 49.7383 18.6277 50.271 17.9768 50.3516C16.9608 50.4773 15.9338 50.5223 14.9141 50.3141C15.305 50.0965 15.5742 49.7345 15.5613 49.3106C15.5207 48.0651 15.9374 46.7426 15.0487 45.6172C15.9633 45.5327 16.8797 45.5684 17.7961 45.5965C17.833 45.6622 17.8791 45.6809 17.9344 45.6172Z" fill="#32c9c0"/>
<path d="M24.5629 45.5977C25.4812 45.6014 26.3976 45.6033 27.3159 45.607C27.373 45.6333 27.4302 45.6577 27.4874 45.6839C28.0645 45.8471 28.2729 46.2786 28.2784 46.8432C28.2858 47.6385 28.295 48.4338 28.2747 49.2273C28.2581 49.8669 27.9336 50.319 27.2938 50.3753C26.3386 50.4578 25.3761 50.5141 24.4209 50.3359C24.869 49.8801 25.0146 49.3361 24.9815 48.6889C24.928 47.6441 25.1271 46.5693 24.5629 45.5977Z" fill="#32c9c0"/>
<path d="M5.66477 45.6085C6.62915 45.5597 7.59353 45.5222 8.55606 45.631C8.60401 45.6535 8.6501 45.676 8.69805 45.6985C9.16641 45.8186 9.39137 46.1656 9.40612 46.6139C9.43746 47.5237 9.44115 48.4372 9.41349 49.3469C9.3969 49.8966 9.07974 50.2961 8.53762 50.3561C7.53637 50.4649 6.52958 50.5174 5.52832 50.3205C5.89342 50.0785 6.17923 49.7127 6.1737 49.3019C6.16079 48.0527 6.51483 46.7377 5.66477 45.6048V45.6085Z" fill="#32c9c0"/>
<path d="M15.0409 36.0255C15.9094 36.0161 16.7779 35.9974 17.6482 36.003C18.384 36.0086 18.8413 36.4438 18.8708 37.211C18.9021 38.0026 18.9021 38.7979 18.8708 39.5895C18.8394 40.3604 18.3969 40.7844 17.6445 40.7919C16.7761 40.7994 15.9076 40.7731 15.0391 40.7618C15.8762 39.1843 15.8762 37.6049 15.0391 36.0255H15.0409Z" fill="#32c9c0"/>
<path d="M33.8086 26.4626C34.7656 26.335 35.7263 26.3838 36.6851 26.4288C37.2899 26.4569 37.6458 26.8546 37.6661 27.4755C37.6938 28.3384 37.6919 29.2012 37.6716 30.0641C37.655 30.76 37.2346 31.1952 36.5524 31.2121C35.6839 31.2308 34.8154 31.2027 33.945 31.1952C34.2604 30.6456 34.4318 30.0697 34.3673 29.4151C34.3212 28.9536 34.3231 28.4809 34.3673 28.0195C34.4263 27.3967 34.2843 26.8752 33.8104 26.4645L33.8086 26.4626Z" fill="#32c9c0"/>
<path d="M24.4286 36.0326C25.3432 36.0213 26.2578 35.9932 27.1705 36.0082C27.803 36.0176 28.2474 36.4584 28.2695 37.1074C28.299 37.9684 28.299 38.8331 28.2695 39.696C28.2474 40.3506 27.8159 40.7764 27.1687 40.7877C26.2559 40.8027 25.3414 40.7708 24.4268 40.7577C24.8601 40.3281 25.0279 39.8123 24.9799 39.1933C24.9394 38.6643 24.9394 38.1278 24.9799 37.5989C25.026 36.9799 24.8675 36.4622 24.4286 36.0326Z" fill="#32c9c0"/>
<path d="M43.1963 26.4717C44.1754 26.3292 45.1582 26.3855 46.1392 26.4323C46.7219 26.4605 47.0612 26.8732 47.087 27.4434C47.1294 28.3494 47.1386 29.261 47.0833 30.167C47.0427 30.8329 46.6002 31.2025 45.9327 31.2137C45.0642 31.2268 44.1957 31.2006 43.3272 31.1912C43.6923 30.6191 43.9523 30.0263 43.8785 29.3098C43.8288 28.8258 43.8638 28.3306 43.8712 27.8411C43.8785 27.2633 43.6628 26.8056 43.1963 26.4736V26.4717Z" fill="#32c9c0"/>
<path d="M14.916 26.4791C15.9173 26.3234 16.9241 26.3703 17.9235 26.4397C18.5762 26.4848 18.8473 27.0043 18.8713 27.614C18.9026 28.4056 18.9026 29.199 18.8713 29.9906C18.8399 30.7503 18.3808 31.1986 17.6469 31.2099C16.8245 31.223 16.0002 31.2005 15.1779 31.1948C15.2055 31.0617 15.2092 30.9172 15.2645 30.7972C15.8472 29.5573 15.6186 28.2799 15.4286 27.0081C15.3881 26.7361 15.1059 26.6348 14.916 26.4773V26.4791Z" fill="#32c9c0"/>
<path d="M52.7068 26.4519C53.6196 26.3412 54.5378 26.39 55.4506 26.4181C56.1218 26.4388 56.5164 26.8814 56.5422 27.6074C56.5699 28.4008 56.5717 29.1962 56.5422 29.9896C56.5145 30.7474 56.0536 31.1995 55.316 31.2108C54.4917 31.2239 53.6657 31.2014 52.8414 31.1939C53.3835 30.2147 53.2102 29.1418 53.2618 28.0932C53.2932 27.4479 53.1512 26.9058 52.7031 26.45L52.7068 26.4519Z" fill="#32c9c0"/>
<path d="M24.4248 26.4537C25.3597 26.343 26.2982 26.3862 27.2331 26.4218C27.8822 26.4462 28.2381 26.872 28.2676 27.506C28.3063 28.367 28.3008 29.2336 28.2694 30.0946C28.2454 30.7605 27.7771 31.1976 27.1004 31.2107C26.254 31.2257 25.4076 31.2013 24.5613 31.1938C24.8692 30.6423 25.0481 30.0702 24.9798 29.4174C24.9337 28.9804 24.9393 28.5339 24.9798 28.095C25.037 27.4516 24.8803 26.9058 24.4248 26.4537Z" fill="#32c9c0"/>
<path d="M5.65751 36.0221C6.52969 36.0146 7.40187 35.994 8.27405 36.0052C8.97106 36.0146 9.38594 36.4085 9.41729 37.1326C9.45233 37.9729 9.45233 38.8189 9.41914 39.6593C9.38963 40.3833 8.98397 40.7847 8.28143 40.7885C7.36499 40.7922 6.44487 40.8635 5.53027 40.7435C5.78289 40.3946 6.21806 40.1338 6.19225 39.6405C6.12955 38.4194 6.52231 37.1232 5.65751 36.024V36.0221Z" fill="#32c9c0"/>
<path d="M5.52832 26.4683C6.48901 26.3238 7.45339 26.3895 8.41592 26.4251C9.02995 26.4476 9.38583 26.8547 9.40981 27.4699C9.443 28.3572 9.44853 29.25 9.40796 30.1373C9.37661 30.8051 8.94513 31.199 8.27947 31.2102C7.40729 31.2252 6.53511 31.1971 5.66108 31.1877C6.1442 30.5481 6.28433 29.824 6.21058 29.0325C6.17554 28.6611 6.19398 28.284 6.20689 27.9107C6.22717 27.3067 6.0225 26.819 5.53016 26.4683H5.52832Z" fill="#32c9c0"/>
<path d="M37.6923 39.5034C37.2184 39.9911 36.7297 40.46 36.1415 40.8052C35.3652 40.7845 34.5908 40.762 33.8145 40.7414C33.9583 40.4769 34.3492 40.3344 34.3271 40.023C34.2386 38.6855 34.7254 37.2862 33.9417 36.0201C34.8083 36.0126 35.6731 35.99 36.5398 36.005C37.2147 36.0163 37.6443 36.4477 37.6701 37.1343C37.6978 37.924 37.6867 38.7137 37.6923 39.5034Z" fill="#32c9c0"/>
<path d="M5.66476 45.6074C6.51482 46.7404 6.16078 48.0553 6.17369 49.3046C6.17738 49.7154 5.89341 50.0812 5.52831 50.3231C4.91428 50.1581 4.7262 49.6891 4.71698 49.1095C4.70592 48.3873 4.71698 47.6652 4.71329 46.943C4.71329 46.2621 4.98066 45.78 5.66476 45.6093V45.6074Z" fill="#3bd3ca"/>
<path d="M5.52799 26.4688C6.02032 26.8195 6.225 27.3072 6.20471 27.9112C6.19181 28.2845 6.17337 28.6615 6.2084 29.0329C6.284 29.8245 6.14202 30.5486 5.65891 31.1882C5.00616 31.0288 4.72219 30.5748 4.71297 29.9239C4.70375 29.1793 4.70375 28.4327 4.71297 27.688C4.72035 27.1065 4.91949 26.6432 5.52615 26.4706L5.52799 26.4688Z" fill="#3bd3ca"/>
<path d="M5.65753 36.0234C6.52418 37.1226 6.12958 38.4188 6.19227 39.6399C6.21808 40.1333 5.78292 40.394 5.5303 40.7429C4.93839 40.5572 4.71896 40.1051 4.71343 39.518C4.70421 38.7733 4.70053 38.0268 4.71343 37.2821C4.7245 36.6368 4.98634 36.166 5.65568 36.0234H5.65753Z" fill="#3bd3ca"/>
<path d="M43.1965 26.4707C43.6648 26.8027 43.8787 27.2604 43.8714 27.8381C43.864 28.3277 43.8308 28.8211 43.8787 29.3069C43.9506 30.0234 43.6925 30.6162 43.3274 31.1883C42.6746 31.027 42.398 30.5693 42.3888 29.9221C42.3778 29.1549 42.3722 28.3878 42.3925 27.6224C42.4073 27.071 42.623 26.6339 43.1965 26.4707Z" fill="#3bd3ca"/>
<path d="M15.0486 45.6152C15.9374 46.7407 15.5206 48.0631 15.5612 49.3086C15.576 49.7326 15.3068 50.0946 14.914 50.3122C14.3682 50.1546 14.1635 49.7401 14.1524 49.2111C14.1359 48.4214 14.1414 47.6298 14.1488 46.8401C14.1543 46.2136 14.4272 45.7784 15.0486 45.6171V45.6152Z" fill="#3bd3ca"/>
<path d="M24.4252 26.4551C24.8807 26.9071 25.0374 27.453 24.9802 28.0964C24.9415 28.5334 24.936 28.9818 24.9802 29.4188C25.0485 30.0716 24.8696 30.6456 24.5617 31.1952C23.8647 31.0695 23.5678 30.6212 23.5733 29.9253C23.5788 29.1581 23.577 28.3909 23.5733 27.6237C23.5715 27.0159 23.8241 26.607 24.4234 26.457L24.4252 26.4551Z" fill="#3bd3ca"/>
<path d="M24.428 36.0312C24.8668 36.4608 25.0254 36.9785 24.9793 37.5975C24.9406 38.1265 24.9388 38.663 24.9793 39.1919C25.0273 39.8128 24.8613 40.3268 24.4261 40.7563C23.801 40.5856 23.5632 40.143 23.5706 39.5127C23.5798 38.768 23.5816 38.0233 23.5706 37.2805C23.5613 36.6446 23.8121 36.2132 24.428 36.0312Z" fill="#3bd3ca"/>
<path d="M52.7071 26.453C53.1533 26.9089 53.2971 27.451 53.2658 28.0962C53.2142 29.1448 53.3875 30.2196 52.8454 31.1969C52.1926 31.09 51.8478 30.6998 51.8404 30.0264C51.8312 29.2161 51.8331 28.4039 51.8386 27.5935C51.8423 26.9914 52.1004 26.5806 52.7089 26.4512L52.7071 26.453Z" fill="#3bd3ca"/>
<path d="M24.5626 45.5977C25.1268 46.5693 24.9277 47.6441 24.9812 48.6889C25.0143 49.3361 24.8705 49.8782 24.4206 50.3359C23.8139 50.1933 23.5705 49.775 23.5724 49.171C23.5724 48.4038 23.5779 47.6385 23.5724 46.8713C23.565 46.1679 23.8803 45.7365 24.5626 45.5977Z" fill="#3bd3ca"/>
<path d="M33.8085 26.4609C34.2824 26.8717 34.4243 27.3932 34.3653 28.016C34.3211 28.4774 34.3192 28.9501 34.3653 29.4115C34.4317 30.0662 34.2602 30.6421 33.9431 31.1917C33.2571 31.036 32.9732 30.5689 32.9732 29.8861C32.9732 29.1433 32.9676 28.3986 32.9732 27.6558C32.9787 27.0649 33.2055 26.626 33.8066 26.4628L33.8085 26.4609Z" fill="#3bd3ca"/>
<path d="M14.9153 26.4785C15.1052 26.638 15.3873 26.7374 15.4279 27.0094C15.6178 28.2811 15.8483 29.5585 15.2638 30.7984C15.2085 30.9185 15.2048 31.0629 15.1771 31.1961C14.517 31.0967 14.1722 30.7046 14.163 30.0294C14.1519 29.2153 14.1574 28.4031 14.1593 27.589C14.1593 27.045 14.3861 26.6548 14.9134 26.4804L14.9153 26.4785Z" fill="#3bd3ca"/>
<path d="M33.941 36.0214C34.7247 37.2876 34.2397 38.6869 34.3264 40.0243C34.3466 40.3357 33.9576 40.4801 33.8138 40.7427C33.1979 40.5026 32.96 40.0224 32.9711 39.3753C32.9803 38.7244 32.9766 38.0716 32.9711 37.4189C32.9655 36.7136 33.2384 36.2127 33.941 36.0195V36.0214Z" fill="#3bd3ca"/>
<path d="M15.0406 36.0254C15.8759 37.6048 15.8759 39.1823 15.0406 40.7617C14.4063 40.6117 14.1574 40.1746 14.1592 39.5462C14.1611 38.7809 14.1629 38.0137 14.1592 37.2484C14.1555 36.6144 14.4229 36.1886 15.0425 36.0273L15.0406 36.0254Z" fill="#3bd3ca"/>
<path d="M17.9342 45.6163C17.877 45.6782 17.8328 45.6595 17.7959 45.5957C17.842 45.6032 17.8881 45.6107 17.9342 45.6163Z" fill="#3bd3ca"/>
<path d="M47.1734 67.1265C40.5002 66.5956 35.3169 60.8389 35.3242 53.9641C35.3298 47.1438 40.5333 41.3945 47.1734 40.873C47.2305 40.9856 47.3246 41.0362 47.4444 41.0588C50.1734 41.5615 52.4581 42.8689 54.3647 44.9247C57.3832 48.1792 58.5929 52.0752 57.7336 56.3933C56.6235 61.9718 53.1864 65.5133 47.7192 66.9183C47.5292 66.967 47.2895 66.8826 47.1734 67.1284V67.1265ZM50.4703 54.9658C51.7998 55.2096 53.1385 55.1421 54.4661 55.0014C54.9695 54.947 55.2166 54.5044 55.2037 53.9716C55.1926 53.4352 54.916 53.0206 54.4127 52.9812C53.1016 52.8781 51.7814 52.7899 50.4703 53.0244C50.1071 52.5573 49.694 52.1371 49.2349 51.7676C49.2718 51.6851 49.34 51.6025 49.34 51.5181C49.3455 49.556 49.351 47.594 49.34 45.63C49.3381 45.1798 49.1335 44.8122 48.7149 44.6209C47.9607 44.2738 47.2268 44.8234 47.2158 45.7745C47.1973 47.5039 47.2047 49.2315 47.2158 50.961C47.2158 51.2311 47.1217 51.5237 47.3209 51.7713C47.1641 51.9064 47.0111 52.0452 46.8525 52.1765C45.9066 52.9662 45.7166 54.3036 46.4063 55.3278C47.0775 56.3239 48.335 56.609 49.4008 56.0387C49.8729 55.7855 50.1015 55.3072 50.4722 54.9658H50.4703Z" fill="#EBF4F9"/>
<path d="M47.1738 67.1261C47.29 66.8804 47.5297 66.9648 47.7196 66.916C53.1869 65.5129 56.624 61.9696 57.734 56.391C58.5933 52.073 57.3855 48.177 54.3652 44.9225C52.4585 42.8685 50.1739 41.5611 47.4449 41.0565C47.3232 41.034 47.231 40.9852 47.1738 40.8708C49.3183 40.5707 51.3835 40.9364 53.3326 41.8199C57.5699 43.7426 60.2234 47.0515 61.0513 51.7016C61.7981 55.9014 60.6917 59.6624 57.8853 62.8568C55.9399 65.0721 53.5207 66.4621 50.646 66.9967C49.4972 67.2105 48.341 67.3456 47.1738 67.1242V67.1261Z" fill="#D4DCF0"/>
<path d="M49.235 51.7678C49.6941 52.1392 50.1071 52.5575 50.4704 53.0246C50.6861 53.6717 50.6935 54.3189 50.4704 54.966C50.0998 55.3093 49.8711 55.7876 49.3991 56.039C48.3314 56.6092 47.0757 56.3241 46.4045 55.328C45.7149 54.3039 45.9048 52.9664 46.8508 52.1767C47.0093 52.0435 47.1642 51.9066 47.3191 51.7716C47.9571 51.5446 48.597 51.5465 49.235 51.7678Z" fill="#2ac0b7"/>
<path d="M49.2351 51.7682C48.5953 51.5488 47.9573 51.5469 47.3193 51.772C47.122 51.5244 47.216 51.2317 47.2142 50.9616C47.2049 49.2322 47.1957 47.5046 47.2142 45.7751C47.2252 44.8241 47.9591 44.2763 48.7133 44.6215C49.1319 44.8128 49.3365 45.1805 49.3384 45.6307C49.3494 47.5927 49.3439 49.5548 49.3384 51.5187C49.3384 51.6013 49.2702 51.6857 49.2333 51.7682H49.2351Z" fill="#3bd3ca"/>
<path d="M50.4707 54.9652C50.6938 54.318 50.6864 53.6709 50.4707 53.0237C51.7817 52.7893 53.102 52.8774 54.413 52.9806C54.9164 53.02 55.193 53.4345 55.2041 53.971C55.2152 54.5037 54.9699 54.9483 54.4665 55.0008C53.1389 55.1415 51.8002 55.209 50.4707 54.9652Z" fill="#3bd3ca"/>
</g>
<defs>
<clipPath id="clip0_1009_8044">
<rect width="66" height="72" fill="white"/>
</clipPath>
</defs>
</svg>
