<svg width="59" height="72" viewBox="0 0 59 72" fill="none" xmlns="http://www.w3.org/2000/svg">
<g style="mix-blend-mode:luminosity" clip-path="url(#clip0_1009_8016)">
<path d="M0.323995 65.8159C0.096323 65.4103 0 64.9745 0 64.5104C0.00218916 50.7076 0.00437832 36.9048 0.00656747 23.1042C0.00656747 23.024 0.0153241 22.9416 0.0197024 22.8613C0.400616 22.8722 0.781529 22.896 1.16463 22.896C19.0128 22.896 36.8589 22.896 54.7071 22.8982C55.5805 22.8982 56.4518 22.9177 57.3253 22.9286C57.3275 36.1697 57.3319 49.4086 57.3297 62.6498C57.3297 64.6448 56.0074 65.9677 54.0065 65.972C50.0792 65.9807 46.1496 65.9676 42.2223 65.9633C43.295 64.4952 44.1772 62.923 44.8558 61.2359C45.1864 61.5005 45.5498 61.6002 45.9855 61.598C48.3038 61.5785 50.6243 61.5915 52.9426 61.5872C53.9452 61.5872 54.2189 61.3226 54.2211 60.3555C54.2254 58.0807 54.2254 55.8059 54.2211 53.5311C54.2211 52.6094 53.9343 52.3275 52.9973 52.3253C50.4601 52.321 47.9229 52.3253 45.3834 52.3253C44.5691 49.22 43.0388 46.5158 40.7731 44.2237C40.7796 43.1134 40.7709 42.0052 40.7971 40.8949C40.8147 40.1837 40.4688 39.9495 39.7923 39.9538C37.2836 39.9733 34.777 39.9646 32.2682 39.9668C30.4162 39.7413 28.5619 39.7413 26.7099 39.9668C24.2033 39.9668 21.6946 39.9755 19.188 39.9516C18.4437 39.9451 18.1591 40.2487 18.1788 40.973C18.2072 42.0811 18.1853 43.1914 18.1831 44.2996C15.9239 46.5635 14.4266 49.2547 13.6209 52.3318C11.0574 52.3275 8.49174 52.321 5.92824 52.3232C5.08104 52.3232 4.76361 52.6181 4.76142 53.4183C4.75266 55.7733 4.75047 58.1305 4.76142 60.4856C4.7658 61.3899 4.97158 61.5829 5.86694 61.5829C8.23999 61.585 10.613 61.572 12.9861 61.5937C13.4633 61.598 13.8377 61.5091 14.0938 61.0928C14.7921 62.6997 15.4905 64.3087 16.6464 65.6662L16.7536 65.9546C11.2785 65.8918 5.80127 66.1585 0.328374 65.8093L0.323995 65.8159ZM9.39587 36.7162C10.5693 36.7162 11.7426 36.7183 12.916 36.7162C13.9012 36.714 14.0807 36.547 14.0829 35.6037C14.0872 33.2747 14.0872 30.9457 14.0829 28.6188C14.0829 27.7189 13.8727 27.4977 12.9948 27.4933C10.6218 27.4847 8.24875 27.4998 5.8757 27.4847C5.1292 27.4803 4.76799 27.7687 4.77455 28.5407C4.78988 30.924 4.78988 33.3072 4.77455 35.6883C4.77017 36.4538 5.11825 36.7487 5.87789 36.727C7.04909 36.6923 8.22467 36.7183 9.39587 36.7183V36.7162ZM36.2043 36.7162C37.404 36.7162 38.6036 36.701 39.8033 36.7227C40.4819 36.7335 40.8081 36.4776 40.8037 35.7707C40.7862 33.3354 40.784 30.898 40.8037 28.4627C40.8103 27.7557 40.4797 27.489 39.8142 27.489C37.3864 27.4933 34.9587 27.4977 32.5331 27.489C31.861 27.4868 31.5107 27.7666 31.5129 28.4518C31.5173 30.8871 31.5151 33.3246 31.5129 35.7598C31.5129 36.4321 31.8282 36.7378 32.5221 36.7248C33.7481 36.701 34.9762 36.7183 36.2043 36.7183V36.7162ZM49.5209 36.7162C50.7491 36.7162 51.9772 36.7031 53.2031 36.7227C53.8467 36.7335 54.1904 36.4646 54.1904 35.8227C54.1948 33.3311 54.197 30.8416 54.1904 28.3499C54.1904 27.7926 53.8708 27.4955 53.3169 27.4955C50.8082 27.489 48.2972 27.489 45.7884 27.4955C45.1952 27.4955 44.8887 27.7948 44.8909 28.402C44.8952 30.8654 44.8974 33.3289 44.8909 35.7945C44.8909 36.4429 45.193 36.7292 45.841 36.7227C47.0691 36.7097 48.2972 36.7183 49.5231 36.7183L49.5209 36.7162ZM18.1744 32.0993C18.1744 33.318 18.1875 34.5346 18.17 35.7533C18.1613 36.3844 18.3977 36.7205 19.0698 36.7183C21.5523 36.7097 24.0326 36.7097 26.5151 36.7183C27.1237 36.7205 27.4499 36.4451 27.452 35.8531C27.4608 33.3636 27.4586 30.8719 27.452 28.3824C27.452 27.7926 27.139 27.4868 26.5326 27.489C24.0501 27.489 21.5698 27.489 19.0873 27.489C18.448 27.489 18.1547 27.7883 18.1678 28.4453C18.1919 29.6619 18.1744 30.8806 18.1744 32.0993ZM9.43746 39.9668C8.26407 39.9668 7.09068 39.9668 5.91729 39.9668C4.95625 39.9668 4.76142 40.1468 4.75704 41.0923C4.74828 43.4213 4.76799 45.7503 4.74609 48.0793C4.73953 48.8166 5.04601 49.0899 5.775 49.0834C8.20277 49.0617 10.6327 49.0617 13.0605 49.0834C13.7851 49.0899 14.1026 48.8275 14.096 48.0858C14.0741 45.7026 14.0763 43.3194 14.096 40.9361C14.1004 40.2487 13.8245 39.9473 13.1218 39.9625C11.8937 39.9863 10.6656 39.969 9.43746 39.969V39.9668ZM49.5538 49.0747C50.7797 49.0747 52.0078 49.0487 53.2338 49.0855C53.9102 49.1051 54.2057 48.7819 54.2101 48.1791C54.2254 45.7438 54.2254 43.3085 54.2101 40.8733C54.2057 40.2726 53.9212 39.9516 53.2425 39.9581C50.7885 39.9842 48.3344 39.9798 45.8804 39.9603C45.2017 39.956 44.8734 40.1967 44.8777 40.9036C44.8931 43.3129 44.8952 45.72 44.8777 48.1292C44.8734 48.8318 45.1886 49.0942 45.8716 49.0812C47.0975 49.0573 48.3257 49.0747 49.5516 49.0747H49.5538ZM2.62261 46.3098C2.62261 41.1118 2.62261 35.9116 2.62261 30.7136C2.62261 30.4968 2.61823 30.2799 2.62261 30.0631C2.63137 29.6966 2.53504 29.4168 2.09502 29.4038C1.68127 29.3908 1.42076 29.5816 1.32882 29.9807C1.30036 30.1108 1.31349 30.2496 1.31349 30.3862C1.31349 40.947 1.31349 51.5078 1.30912 62.0664C1.30912 62.5739 1.38574 63.0163 2.00965 63.0445C2.76272 63.0792 2.61823 62.5067 2.61823 62.0686C2.62261 56.8164 2.62261 51.562 2.62261 46.3098Z" fill="#F1F1F0"/>
<path d="M57.3232 22.928C56.4497 22.9171 55.5784 22.8976 54.7049 22.8976C36.8567 22.8976 19.0107 22.8976 1.16251 22.8955C0.781594 22.8955 0.400681 22.8738 0.0175781 22.8608C0.0219564 19.2913 0.0110107 15.7197 0.0394697 12.1503C0.0526047 10.3396 1.35078 9.1252 3.26629 9.11436C6.64635 9.09701 10.0264 9.11436 13.4065 9.11436C13.4152 11.2222 13.4262 13.33 13.4349 15.4357C13.4371 16.3942 13.8268 17.1662 14.6061 17.717C15.5015 18.348 16.4976 18.4152 17.463 17.9555C18.4656 17.4784 19.0195 16.6457 19.0282 15.5029C19.0457 13.369 19.0654 11.2352 19.083 9.10352C26.0182 9.10352 32.9557 9.10352 39.8909 9.10352C39.9084 11.1831 39.9172 13.2628 39.9456 15.3424C39.9675 17.0729 41.1256 18.2439 42.7675 18.2266C44.4028 18.2092 45.5324 17.0079 45.5411 15.2752C45.5499 13.2216 45.5608 11.168 45.5696 9.11436C48.9234 9.11219 52.2794 9.10135 55.6331 9.11002C57.7282 9.11653 58.9431 10.3266 58.9475 12.3932C58.9541 15.8846 58.9475 19.3759 58.9475 22.8673C58.4068 22.8868 57.8639 22.9085 57.3232 22.928Z" fill="#5eaaf0"/>
<path d="M44.8511 61.2385C44.1747 62.9235 43.2902 64.4956 42.2176 65.9659C41.7206 66.5015 41.2259 67.0372 40.7289 67.5728C38.7828 69.2534 36.6527 70.6413 34.1418 71.3244C28.3974 72.8857 23.2376 71.7516 18.6907 67.9133C18.5462 67.7918 18.3886 67.6856 18.2375 67.5728C17.8435 67.048 17.2874 66.6555 16.9766 66.0613C17.3378 65.903 17.5348 66.2196 17.7712 66.3584C21.8912 68.798 26.2652 69.3467 30.8602 68.0412C33.6426 67.2519 35.985 65.736 37.9859 63.6521C40.8406 60.679 42.2416 57.1074 42.4058 53.0631C42.535 49.9144 41.7053 46.9738 40.024 44.287C39.8795 44.0549 39.7613 43.8099 39.8292 43.5215C40.1422 43.7579 40.4553 43.9921 40.7683 44.2284C43.0363 46.5206 44.5643 49.2248 45.3787 52.3301C45.9501 55.3444 45.799 58.3153 44.8489 61.2385H44.8511Z" fill="#68b3f9"/>
<path d="M40.7317 67.5717C41.2286 67.0361 41.7234 66.5005 42.2203 65.9648C46.1477 65.9692 50.0772 65.9822 54.0045 65.9713C56.0032 65.967 57.3255 64.6442 57.3277 62.6491C57.3321 49.408 57.3277 36.169 57.3233 22.9279C57.864 22.9084 58.4069 22.8867 58.9477 22.8672C58.9542 23.1643 58.9674 23.4614 58.9674 23.7606C58.9674 37.2121 58.9389 50.6658 58.998 64.1172C59.0068 66.1795 57.389 67.6932 55.4538 67.6433C50.5479 67.5153 45.6376 67.5826 40.7295 67.5739L40.7317 67.5717Z" fill="#b4dbff"/>
<path d="M19.0827 9.10355C19.0652 11.2374 19.0433 13.3712 19.028 15.5029C19.0192 16.6457 18.4654 17.4785 17.4628 17.9555C16.4952 18.4153 15.5013 18.3481 14.6059 17.717C13.8244 17.1662 13.4369 16.3942 13.4347 15.4357C13.4281 13.3279 13.4172 11.22 13.4062 9.11439C13.4128 7.08897 13.4172 5.06355 13.4303 3.03813C13.4369 1.28161 14.6256 0.00216854 16.2346 0C17.8546 0 19.028 1.25559 19.0433 3.02729C19.063 5.05271 19.0696 7.07813 19.0827 9.10138V9.10355Z" fill="#7cc0ff"/>
<path d="M45.5693 9.11438C45.5605 11.168 45.5518 13.2216 45.5408 15.2752C45.5321 17.0057 44.4025 18.2093 42.7672 18.2266C41.1231 18.244 39.9672 17.0729 39.9454 15.3424C39.9169 13.2628 39.9081 11.1832 39.8906 9.10354C39.9059 6.97186 39.8972 4.83801 39.941 2.70633C39.9716 1.26425 41.0399 0.175644 42.4935 0.0151714C43.8158 -0.13229 45.1512 0.811027 45.4642 2.15552C45.554 2.54369 45.5408 2.96005 45.5452 3.3634C45.5605 5.2804 45.5627 7.19739 45.5693 9.11655V9.11438Z" fill="#7cc0ff"/>
<path d="M16.9793 66.0595C17.2902 66.6537 17.8462 67.0462 18.2403 67.571C13.1308 67.5796 8.01911 67.61 2.90961 67.5862C1.7012 67.5797 0.843049 66.8987 0.324219 65.8145C5.79711 66.1636 11.2744 65.8969 16.7495 65.9597C16.8261 65.9879 16.9005 66.0183 16.9771 66.0465V66.0595H16.9793Z" fill="#b4dbff"/>
<path d="M39.8315 43.5196C39.7636 43.808 39.8796 44.0531 40.0263 44.2851C41.7098 46.9741 42.5373 49.9147 42.4081 53.0612C42.2418 57.1055 40.8407 60.6771 37.9882 63.6502C35.9873 65.7342 33.6449 67.25 30.8625 68.0394C26.2675 69.3448 21.8935 68.7962 17.7735 66.3566C17.5371 66.2156 17.3401 65.899 16.9789 66.0595V66.0465C17.0051 65.7992 16.8519 65.7103 16.6439 65.6713C15.488 64.3138 14.7897 62.7069 14.0914 61.0978C13.9841 60.6836 13.8768 60.2695 13.7652 59.8553C13.1041 57.3614 13.1588 54.8524 13.6163 52.3369C14.4219 49.2598 15.9193 46.5686 18.1785 44.3046C18.9754 43.6519 19.7482 42.971 20.6151 42.405C22.4802 41.1841 24.5446 40.4641 26.7053 39.9719C28.5573 39.7464 30.4115 39.7464 32.2636 39.9719C32.4431 40.0239 32.6226 40.0868 32.8043 40.128C35.3415 40.6788 37.6467 41.7154 39.652 43.3722C39.5053 43.6519 39.7571 43.4893 39.8271 43.5283V43.5218L39.8315 43.5196ZM22.165 52.1504C21.1996 52.1439 20.1904 52.7858 19.7657 53.8202C19.2928 54.9739 19.5424 56.0039 20.4071 56.8735C22.1715 58.6474 23.9448 60.4104 25.7333 62.1604C26.9483 63.3488 28.5464 63.3857 29.746 62.2081C32.7167 59.2958 35.6611 56.3574 38.6056 53.419C39.2338 52.7923 39.5425 52.0181 39.4068 51.129C39.2382 50.0209 38.6209 49.2359 37.5372 48.8759C36.4208 48.5073 35.4422 48.7935 34.6191 49.6089C32.4934 51.7124 30.359 53.8072 28.2618 55.9389C27.848 56.3596 27.6423 56.3249 27.2613 55.9237C26.3266 54.937 25.3414 54.0002 24.376 53.0417C23.8134 52.4844 23.1567 52.1396 22.165 52.1504Z" fill="#7cc0ff"/>
<path d="M9.39577 36.7161C8.22238 36.7161 7.04899 36.6923 5.87779 36.7248C5.11815 36.7465 4.77008 36.4537 4.77445 35.6861C4.78759 33.3028 4.78978 30.9196 4.77445 28.5386C4.77008 27.7687 5.1291 27.4781 5.8756 27.4825C8.24865 27.4976 10.6217 27.4825 12.9947 27.4911C13.8726 27.4933 14.0806 27.7167 14.0828 28.6166C14.0871 30.9456 14.0871 33.2747 14.0828 35.6015C14.0828 36.5448 13.9011 36.7118 12.9159 36.714C11.7425 36.7183 10.5692 36.714 9.39577 36.714V36.7161Z" fill="#7cc0ff"/>
<path d="M36.2041 36.7137C34.9759 36.7137 33.75 36.6964 32.5219 36.7202C31.8301 36.7332 31.5127 36.4275 31.5127 35.7552C31.5127 33.3199 31.5149 30.8825 31.5127 28.4472C31.5127 27.762 31.8608 27.4822 32.5328 27.4844C34.9606 27.4952 37.3884 27.4909 39.814 27.4844C40.4795 27.4844 40.8101 27.7511 40.8035 28.4581C40.7838 30.8933 40.786 33.3308 40.8035 35.7661C40.8079 36.473 40.4817 36.7289 39.803 36.7181C38.6034 36.6985 37.4037 36.7115 36.2041 36.7115V36.7137Z" fill="#7cc0ff"/>
<path d="M49.5209 36.714C48.2928 36.714 47.0647 36.7054 45.8388 36.7184C45.1908 36.7249 44.8865 36.4386 44.8887 35.7902C44.8953 33.3268 44.8953 30.8633 44.8887 28.3977C44.8887 27.7883 45.1952 27.4912 45.7862 27.4912C48.295 27.4847 50.806 27.4847 53.3148 27.4912C53.8686 27.4912 54.186 27.7905 54.1882 28.3456C54.1948 30.8373 54.1948 33.3268 54.1882 35.8184C54.1882 36.4603 53.8423 36.727 53.2009 36.7184C51.9728 36.6988 50.7469 36.7119 49.5188 36.7119L49.5209 36.714Z" fill="#7cc0ff"/>
<path d="M18.1769 32.0986C18.1769 30.8799 18.1944 29.6612 18.1703 28.4446C18.1572 27.7897 18.4506 27.4904 19.0898 27.4883C21.5723 27.4883 24.0526 27.4883 26.5351 27.4883C27.1415 27.4883 27.4524 27.794 27.4546 28.3817C27.4611 30.8712 27.4633 33.3629 27.4546 35.8524C27.4524 36.4444 27.1262 36.7198 26.5176 36.7176C24.0351 36.7068 21.5548 36.7089 19.0723 36.7176C18.4002 36.7176 18.1616 36.3836 18.1725 35.7526C18.1922 34.5339 18.1769 33.3173 18.1791 32.0986H18.1769Z" fill="#7cc0ff"/>
<path d="M9.43764 39.9659C10.6658 39.9659 11.8939 39.9832 13.122 39.9594C13.8225 39.9464 14.1005 40.2456 14.0962 40.9331C14.0787 43.3163 14.0743 45.6995 14.0962 48.0828C14.1027 48.8244 13.7853 49.0868 13.0607 49.0803C10.6329 49.0586 8.20295 49.0586 5.77518 49.0803C5.04619 49.0868 4.73752 48.8157 4.74627 48.0763C4.76817 45.7472 4.74846 43.4182 4.75722 41.0892C4.7616 40.1437 4.95643 39.9659 5.91747 39.9637C7.09086 39.9616 8.26425 39.9637 9.43764 39.9637V39.9659Z" fill="#b4dbff"/>
<path d="M49.5538 49.0737C48.3279 49.0737 47.0997 49.0563 45.8738 49.0802C45.1886 49.0932 44.8755 48.8308 44.8799 48.1282C44.8974 45.719 44.8974 43.3119 44.8799 40.9026C44.8755 40.1935 45.2039 39.9528 45.8826 39.9593C48.3366 39.9766 50.7907 39.981 53.2447 39.9571C53.9233 39.9506 54.2079 40.2716 54.2123 40.8723C54.2254 43.3075 54.2276 45.7428 54.2123 48.1781C54.2079 48.7809 53.9124 49.1041 53.2359 49.0845C52.01 49.0498 50.7819 49.0737 49.556 49.0737H49.5538Z" fill="#b4dbff"/>
<path d="M13.6167 52.3371C13.1592 54.8527 13.1044 57.3617 13.7656 59.8555C13.875 60.2697 13.9823 60.6839 14.0917 61.0981C13.8356 61.5144 13.4613 61.6033 12.984 61.599C10.611 61.5773 8.23794 61.5903 5.86489 61.5882C4.96952 61.5882 4.76374 61.3952 4.75936 60.4909C4.74842 58.1358 4.75061 55.7786 4.75936 53.4236C4.76155 52.6234 5.08117 52.3285 5.92619 52.3285C8.48969 52.3263 11.0554 52.335 13.6189 52.3371H13.6167Z" fill="#b4dbff"/>
<path d="M44.8516 61.2384C45.8017 58.3131 45.9527 55.3422 45.3813 52.3301C47.9186 52.3301 50.4558 52.3257 52.9952 52.3301C53.93 52.3301 54.2168 52.612 54.219 53.5358C54.2233 55.8106 54.2233 58.0854 54.219 60.3602C54.219 61.3273 53.9431 61.5897 52.9405 61.5919C50.6222 61.5941 48.3017 61.5832 45.9834 61.6027C45.5477 61.6071 45.1843 61.5052 44.8538 61.2406L44.8516 61.2384Z" fill="#b4dbff"/>
<path d="M2.62306 46.3089C2.62306 51.5612 2.62307 56.8155 2.61869 62.0677C2.61869 62.5036 2.76317 63.0783 2.0101 63.0436C1.38619 63.0154 1.30957 62.573 1.30957 62.0656C1.31395 51.5048 1.31176 40.944 1.31395 30.3853C1.31395 30.2509 1.30081 30.1099 1.32927 29.9798C1.41903 29.5808 1.67954 29.39 2.09548 29.403C2.53769 29.416 2.63182 29.6957 2.62306 30.0622C2.61869 30.2791 2.62306 30.4959 2.62306 30.7128C2.62306 35.9108 2.62306 41.1109 2.62306 46.3089Z" fill="white"/>
<path d="M26.7079 39.9723C24.5494 40.4646 22.485 41.1845 20.6176 42.4054C19.7507 42.9736 18.978 43.6545 18.1811 44.3051C18.1811 43.1948 18.2052 42.0866 18.1767 40.9785C18.157 40.2542 18.4416 39.9506 19.1859 39.9571C21.6925 39.981 24.2013 39.9701 26.7079 39.9723Z" fill="#b4dbff"/>
<path d="M39.654 43.3704C37.6488 41.7136 35.3436 40.677 32.8063 40.1262C32.6225 40.0872 32.4451 40.0221 32.2656 39.9701C34.7744 39.9701 37.281 39.9766 39.7898 39.9571C40.4662 39.9528 40.8121 40.1848 40.7946 40.8982C40.7683 42.0064 40.7771 43.1167 40.7705 44.227C40.4575 43.9906 40.1444 43.7564 39.8314 43.52V43.5265C39.7722 43.4745 39.7153 43.4224 39.6562 43.3704H39.654Z" fill="#b4dbff"/>
<path d="M16.6445 65.6719C16.8525 65.7109 17.0057 65.7998 16.9795 66.047C16.9029 66.0188 16.8262 65.9885 16.7518 65.9603C16.7168 65.8649 16.6817 65.7673 16.6445 65.6719Z" fill="#68b3f9"/>
<path d="M22.1627 52.1518C23.1544 52.1431 23.8111 52.4858 24.3737 53.0431C25.3392 54.0016 26.3243 54.9384 27.2591 55.9251C27.64 56.3263 27.8457 56.361 28.2595 55.9403C30.3567 53.8086 32.4933 51.7138 34.6168 49.6103C35.4399 48.7949 36.4185 48.5087 37.535 48.8773C38.6186 49.2351 39.2359 50.0223 39.4045 51.1304C39.5402 52.0195 39.2316 52.7959 38.6033 53.4204C35.6589 56.3588 32.7144 59.2972 29.7437 62.2095C28.5441 63.3849 26.9438 63.348 25.731 62.1618C23.9425 60.414 22.1693 58.6488 20.4048 56.8749C19.5401 56.0053 19.2905 54.9753 19.7634 53.8216C20.1881 52.785 21.1951 52.1453 22.1627 52.1518Z" fill="white"/>
<path d="M39.6545 43.3711C39.7136 43.4231 39.7705 43.4752 39.8296 43.5272C39.7596 43.4882 39.5078 43.653 39.6545 43.3711Z" fill="#68b3f9"/>
</g>
<defs>
<clipPath id="clip0_1009_8016">
<rect width="59" height="72" fill="white"/>
</clipPath>
</defs>
</svg>
