<svg width="122" height="46" viewBox="0 0 122 46" fill="none" xmlns="http://www.w3.org/2000/svg">
<rect x="52" y="9.95703" width="36" height="36" rx="5.3617" fill="#2278C8"/>
<path d="M59.252 31.1116C58.6865 31.1116 58.2847 30.814 58.0466 30.2187C57.8234 29.6235 57.7118 28.6711 57.7118 27.3615C57.7118 25.4269 57.9871 23.589 58.5377 21.8479C58.6717 21.4163 58.8874 21.1038 59.1851 20.9104C59.4976 20.702 59.9291 20.5979 60.4798 20.5979C60.7774 20.5979 60.9857 20.6351 61.1048 20.7095C61.2238 20.7839 61.2834 20.9253 61.2834 21.1336C61.2834 21.3717 61.1718 21.9074 60.9485 22.7408C60.7997 23.336 60.6807 23.8569 60.5914 24.3033C60.5021 24.7349 60.4277 25.2781 60.3682 25.9329C60.77 24.7721 61.2462 23.7899 61.7968 22.9863C62.3623 22.1827 62.9352 21.5875 63.5156 21.2006C64.1108 20.7988 64.6689 20.5979 65.1897 20.5979C65.7106 20.5979 66.0752 20.7169 66.2835 20.955C66.5068 21.1931 66.6184 21.5577 66.6184 22.0488C66.6184 22.525 66.477 23.3881 66.1942 24.6382C66.0752 25.1739 65.9933 25.5757 65.9487 25.8436C66.6928 24.0132 67.5187 22.6813 68.4265 21.8479C69.3342 21.0145 70.1825 20.5979 70.9712 20.5979C71.9385 20.5979 72.4221 21.0815 72.4221 22.0488C72.4221 22.6292 72.2584 23.6783 71.931 25.1962C71.6483 26.4909 71.5069 27.3466 71.5069 27.7633C71.5069 28.3585 71.7227 28.6562 72.1543 28.6562C72.4519 28.6562 72.8016 28.4776 73.2034 28.1204C73.6201 27.7484 74.1707 27.1531 74.8553 26.3347C75.0338 26.1263 75.2347 26.0222 75.458 26.0222C75.6514 26.0222 75.8002 26.1114 75.9044 26.29C76.0234 26.4686 76.083 26.7141 76.083 27.0267C76.083 27.6219 75.9416 28.0832 75.6589 28.4106C75.0189 29.1993 74.327 29.8467 73.5829 30.3527C72.8537 30.8586 72.0203 31.1116 71.0828 31.1116C70.3238 31.1116 69.7509 30.8958 69.364 30.4643C68.9771 30.0178 68.7836 29.3779 68.7836 28.5446C68.7836 28.1279 68.8878 27.3838 69.0961 26.3123C69.2896 25.3748 69.3863 24.7275 69.3863 24.3703C69.3863 24.1322 69.3045 24.0132 69.1408 24.0132C68.9473 24.0132 68.672 24.2661 68.3149 24.7721C67.9577 25.2632 67.6005 25.918 67.2434 26.7365C66.8862 27.5549 66.596 28.4181 66.3728 29.3258C66.2091 30.0401 66.0157 30.5164 65.7924 30.7545C65.5841 30.9926 65.2418 31.1116 64.7656 31.1116C64.2745 31.1116 63.9025 30.8809 63.6495 30.4196C63.4114 29.9434 63.2924 29.3705 63.2924 28.7008C63.2924 28.1353 63.3668 27.3168 63.5156 26.2454C63.6346 25.293 63.6942 24.6679 63.6942 24.3703C63.6942 24.1322 63.6123 24.0132 63.4486 24.0132C63.2254 24.0132 62.9426 24.281 62.6004 24.8168C62.2581 25.3525 61.9233 26.037 61.5959 26.8704C61.2834 27.7038 61.0304 28.5222 60.8369 29.3258C60.6732 30.0253 60.4798 30.5015 60.2565 30.7545C60.0482 30.9926 59.7134 31.1116 59.252 31.1116ZM82.0908 20.5979C82.4331 20.5979 82.6712 20.6425 82.8051 20.7318C82.939 20.8211 83.006 20.9699 83.006 21.1782C83.006 21.5354 82.8125 22.8078 82.4256 24.9953C82.0833 27.0936 81.8824 28.3362 81.8229 28.7231C81.2723 32.5477 80.5133 35.576 79.5461 37.8083C78.5788 40.0405 77.2915 41.1566 75.6843 41.1566C74.9254 41.1566 74.3078 40.9185 73.8316 40.4423C73.3554 39.981 73.1173 39.3708 73.1173 38.6119C73.1173 37.9124 73.2735 37.1981 73.586 36.4689C73.9134 35.7397 74.5087 34.8989 75.3718 33.9465C76.2498 33.009 77.485 31.9301 79.0773 30.7098L79.1443 30.1964C79.2484 29.6458 79.3675 28.8571 79.5014 27.8302C79.2038 28.9017 78.7871 29.7202 78.2514 30.2857C77.7156 30.8363 77.1501 31.1116 76.5549 31.1116C75.8852 31.1116 75.3346 30.8065 74.903 30.1964C74.4864 29.5714 74.278 28.7975 74.278 27.8749C74.278 26.7588 74.3524 25.7394 74.5012 24.8168C74.6501 23.8792 74.8956 22.8896 75.2379 21.8479C75.3867 21.4015 75.595 21.0815 75.8629 20.888C76.1308 20.6946 76.5549 20.5979 77.1353 20.5979C77.4626 20.5979 77.6859 20.6499 77.8049 20.7541C77.9389 20.8583 78.0058 21.0145 78.0058 21.2229C78.0058 21.3419 77.924 21.7437 77.7603 22.4283C77.6115 22.9789 77.4924 23.4774 77.4031 23.9239C77.2841 24.534 77.1799 25.1218 77.0906 25.6873C77.0013 26.2379 76.9567 26.6918 76.9567 27.049C76.9567 27.6145 77.1129 27.8972 77.4254 27.8972C77.6487 27.8972 77.924 27.674 78.2514 27.2275C78.5936 26.7811 78.9508 26.104 79.3228 25.1962C79.7097 24.2885 80.0818 23.1724 80.4389 21.8479C80.558 21.4015 80.7366 21.0815 80.9747 20.888C81.2277 20.6946 81.5997 20.5979 82.0908 20.5979ZM75.9299 38.9913C76.3019 38.9913 76.7186 38.5598 77.1799 37.6967C77.6412 36.8335 78.1025 35.3975 78.5639 33.3885C77.418 34.3558 76.5846 35.2338 76.0638 36.0225C75.5578 36.8261 75.3048 37.5255 75.3048 38.1208C75.3048 38.3738 75.3495 38.5821 75.4388 38.7458C75.5429 38.9095 75.7066 38.9913 75.9299 38.9913Z" fill="white"/>
<path d="M1.22 35V25.4H3.42V35H1.22ZM7.6 35V29.28C7.6 28.64 7.4 28.1467 7 27.8C6.6 27.44 6.10667 27.26 5.52 27.26C5.12 27.26 4.76 27.34 4.44 27.5C4.13333 27.66 3.88667 27.8933 3.7 28.2C3.51333 28.4933 3.42 28.8533 3.42 29.28L2.56 28.8C2.56 28.0667 2.72 27.4333 3.04 26.9C3.36 26.3667 3.79333 25.9533 4.34 25.66C4.88667 25.3533 5.5 25.2 6.18 25.2C6.86 25.2 7.47333 25.3467 8.02 25.64C8.56667 25.9333 9 26.3467 9.32 26.88C9.64 27.4133 9.8 28.0533 9.8 28.8V35H7.6ZM13.98 35V29.28C13.98 28.64 13.78 28.1467 13.38 27.8C12.98 27.44 12.4867 27.26 11.9 27.26C11.5133 27.26 11.16 27.34 10.84 27.5C10.52 27.66 10.2667 27.8933 10.08 28.2C9.89333 28.4933 9.8 28.8533 9.8 29.28L8.56 28.8C8.62667 28.0667 8.84 27.4333 9.2 26.9C9.56 26.3667 10.02 25.9533 10.58 25.66C11.1533 25.3533 11.78 25.2 12.46 25.2C13.1533 25.2 13.78 25.3467 14.34 25.64C14.9 25.9333 15.3467 26.3467 15.68 26.88C16.0133 27.4133 16.18 28.0533 16.18 28.8V35H13.98ZM22.4666 35.2C21.5999 35.2 20.8132 34.98 20.1066 34.54C19.4132 34.1 18.8599 33.5067 18.4466 32.76C18.0466 32 17.8466 31.1533 17.8466 30.22C17.8466 29.2733 18.0466 28.4267 18.4466 27.68C18.8599 26.92 19.4132 26.32 20.1066 25.88C20.8132 25.4267 21.5999 25.2 22.4666 25.2C23.1999 25.2 23.8466 25.36 24.4066 25.68C24.9799 25.9867 25.4332 26.4133 25.7666 26.96C26.0999 27.5067 26.2666 28.1267 26.2666 28.82V31.58C26.2666 32.2733 26.0999 32.8933 25.7666 33.44C25.4466 33.9867 24.9999 34.42 24.4266 34.74C23.8532 35.0467 23.1999 35.2 22.4666 35.2ZM22.8266 33.12C23.6399 33.12 24.2932 32.8467 24.7866 32.3C25.2932 31.7533 25.5466 31.0533 25.5466 30.2C25.5466 29.6267 25.4332 29.12 25.2066 28.68C24.9799 28.24 24.6599 27.9 24.2466 27.66C23.8466 27.4067 23.3732 27.28 22.8266 27.28C22.2932 27.28 21.8199 27.4067 21.4066 27.66C21.0066 27.9 20.6866 28.24 20.4466 28.68C20.2199 29.12 20.1066 29.6267 20.1066 30.2C20.1066 30.7733 20.2199 31.28 20.4466 31.72C20.6866 32.16 21.0066 32.5067 21.4066 32.76C21.8199 33 22.2932 33.12 22.8266 33.12ZM25.4066 35V32.42L25.7866 30.08L25.4066 27.76V25.4H27.6066V35H25.4066ZM36.1481 35L32.0881 30.1L36.1281 25.4H38.7481L34.1081 30.68L34.2081 29.42L38.9481 35H36.1481ZM30.0481 35V20.6H32.2481V35H30.0481ZM44.2347 35.2C43.2747 35.2 42.408 34.9867 41.6347 34.56C40.8747 34.12 40.268 33.52 39.8147 32.76C39.3747 32 39.1547 31.1467 39.1547 30.2C39.1547 29.2533 39.3747 28.4067 39.8147 27.66C40.2547 26.9 40.848 26.3 41.5947 25.86C42.3547 25.42 43.1947 25.2 44.1147 25.2C45.008 25.2 45.7947 25.4067 46.4747 25.82C47.168 26.2333 47.708 26.8 48.0947 27.52C48.4947 28.24 48.6947 29.06 48.6947 29.98C48.6947 30.14 48.6814 30.3067 48.6547 30.48C48.6414 30.64 48.6147 30.82 48.5747 31.02H40.6947V29.22H47.4347L46.6147 29.94C46.588 29.3533 46.4747 28.86 46.2747 28.46C46.0747 28.06 45.788 27.7533 45.4147 27.54C45.0547 27.3267 44.608 27.22 44.0747 27.22C43.5147 27.22 43.028 27.34 42.6147 27.58C42.2014 27.82 41.8814 28.16 41.6547 28.6C41.428 29.0267 41.3147 29.54 41.3147 30.14C41.3147 30.74 41.4347 31.2667 41.6747 31.72C41.9147 32.1733 42.2547 32.5267 42.6947 32.78C43.1347 33.02 43.6414 33.14 44.2147 33.14C44.708 33.14 45.1614 33.0533 45.5747 32.88C46.0014 32.7067 46.3614 32.4533 46.6547 32.12L48.0547 33.54C47.588 34.0867 47.0214 34.5 46.3547 34.78C45.688 35.06 44.9814 35.2 44.2347 35.2Z" fill="#2278C8"/>
<path d="M92.68 35V21.4H94.88V35H92.68ZM90.38 27.4V25.4H97.18V27.4H90.38ZM98.7786 35V25.4H100.979V35H98.7786ZM100.979 29.66L100.219 29.28C100.219 28.0667 100.485 27.0867 101.019 26.34C101.565 25.58 102.385 25.2 103.479 25.2C103.959 25.2 104.392 25.2867 104.779 25.46C105.165 25.6333 105.525 25.9133 105.859 26.3L104.419 27.78C104.245 27.5933 104.052 27.46 103.839 27.38C103.625 27.3 103.379 27.26 103.099 27.26C102.485 27.26 101.979 27.4533 101.579 27.84C101.179 28.2267 100.979 28.8333 100.979 29.66ZM106.943 35V25.4H109.143V35H106.943ZM108.043 23.64C107.67 23.64 107.356 23.5133 107.103 23.26C106.863 23.0067 106.743 22.6933 106.743 22.32C106.743 21.9467 106.863 21.6333 107.103 21.38C107.356 21.1267 107.67 21 108.043 21C108.43 21 108.743 21.1267 108.983 21.38C109.223 21.6333 109.343 21.9467 109.343 22.32C109.343 22.6933 109.223 23.0067 108.983 23.26C108.743 23.5133 108.43 23.64 108.043 23.64ZM116.751 35.2C116.017 35.2 115.364 35.0467 114.791 34.74C114.217 34.42 113.764 33.9867 113.431 33.44C113.111 32.8933 112.951 32.2733 112.951 31.58V28.82C112.951 28.1267 113.117 27.5067 113.451 26.96C113.784 26.4133 114.237 25.9867 114.811 25.68C115.384 25.36 116.031 25.2 116.751 25.2C117.617 25.2 118.397 25.4267 119.091 25.88C119.797 26.32 120.351 26.92 120.751 27.68C121.164 28.4267 121.371 29.2733 121.371 30.22C121.371 31.1533 121.164 32 120.751 32.76C120.351 33.5067 119.797 34.1 119.091 34.54C118.397 34.98 117.617 35.2 116.751 35.2ZM116.391 33.12C116.924 33.12 117.391 33 117.791 32.76C118.204 32.5067 118.524 32.16 118.751 31.72C118.991 31.28 119.111 30.7733 119.111 30.2C119.111 29.6267 118.991 29.12 118.751 28.68C118.524 28.24 118.204 27.9 117.791 27.66C117.391 27.4067 116.924 27.28 116.391 27.28C115.857 27.28 115.384 27.4067 114.971 27.66C114.557 27.9 114.237 28.24 114.011 28.68C113.784 29.12 113.671 29.6267 113.671 30.2C113.671 30.7733 113.784 31.28 114.011 31.72C114.237 32.16 114.557 32.5067 114.971 32.76C115.384 33 115.857 33.12 116.391 33.12ZM111.611 39V25.4H113.811V27.98L113.431 30.32L113.811 32.64V39H111.611Z" fill="#2278C8"/>
</svg>
