<svg width="116" height="49" viewBox="0 0 116 49" fill="none" xmlns="http://www.w3.org/2000/svg">
<path d="M0.148847 40.9992C0.0161757 40.5974 -0.0150907 40.2479 0.00603525 39.8867C0.0812437 38.5912 0.148002 37.2957 0.217295 36.0002C0.249406 35.3922 0.281518 34.7842 0.312784 34.1754C0.404049 32.3904 0.491088 30.6053 0.588267 28.8203C0.691362 26.93 0.802062 25.0398 0.914452 23.1503C0.945719 22.6219 0.98121 22.0934 1.04036 21.5674C1.30909 19.1752 2.51158 17.3752 4.64192 16.1791C5.64921 15.6134 6.74691 15.2978 7.88687 15.1081C8.63473 14.983 9.3885 14.9366 10.1448 14.9201C10.2124 14.9184 10.2809 14.9134 10.3468 14.925C10.4 14.9341 10.4448 14.9673 10.4161 15.0369C10.3138 15.282 10.2082 15.5256 10.1127 15.7732C9.97919 16.1195 9.85243 16.4682 9.72483 16.8169C9.69779 16.8915 9.6792 16.9694 9.66061 17.0464C9.62089 17.2071 9.67582 17.3264 9.81778 17.4191C10.1102 17.6088 10.4279 17.6188 10.7532 17.5467C10.978 17.4962 11.1834 17.3935 11.3777 17.2709C11.6752 17.0828 11.9321 16.8492 12.1729 16.5974C12.5532 16.1998 12.8743 15.7583 13.1726 15.2994C13.2233 15.2216 13.2748 15.1437 13.3213 15.0625C13.3796 14.9598 13.4633 14.9093 13.585 14.9143C13.6796 14.9184 13.7743 14.9143 13.8689 14.9143C15.0714 14.9143 16.273 14.9143 17.4755 14.9143C18.247 14.9143 18.9679 14.7097 19.6608 14.3941C19.8332 14.3162 19.9912 14.2127 20.1256 14.0801C20.3977 13.8118 20.4458 13.5061 20.2616 13.1748C20.123 12.9263 19.9278 12.73 19.6802 12.5792C19.1808 12.2769 18.6375 12.0781 18.0696 11.9497C17.1831 11.7501 16.284 11.6672 15.3748 11.7351C15.0114 11.7616 14.6446 11.76 14.2864 11.8321C14.1385 11.8619 14.032 11.8138 13.9297 11.7078C13.4836 11.2473 13.0315 10.7908 12.5794 10.3353C12.2405 9.994 11.9245 9.63036 11.5172 9.3595C11.2713 9.19549 11.0237 9.03645 10.7532 8.9122C10.6172 8.85007 10.4752 8.80617 10.3265 8.79375C10.0916 8.77469 9.93524 8.89315 9.89975 9.12176C9.86933 9.31973 9.88961 9.51853 9.92426 9.71485C10.0341 10.3419 10.1921 10.9573 10.3983 11.5604C10.4364 11.6714 10.4997 11.7757 10.4761 11.9124C10.2826 11.9638 10.0806 11.977 9.87947 11.9803C8.76318 11.9969 7.67223 11.8503 6.61593 11.4842C4.7729 10.8455 3.40901 9.66763 2.49975 7.97701C2.11948 7.27045 1.85414 6.52247 1.65809 5.74964C1.63274 5.64775 1.61583 5.5409 1.61837 5.43653C1.62682 4.9677 1.57274 5.00166 2.05103 5.00166C7.58942 5.00166 13.1278 5.00248 18.6662 5C18.9653 5 19.2586 5.03479 19.5493 5.09691C20.8337 5.37109 22.0185 5.85981 23.0579 6.65914C24.0837 7.44771 24.8138 8.44419 25.2364 9.65604C25.4628 10.3071 25.6978 10.9549 25.8245 11.6349C26.1803 13.5517 26.018 15.4055 25.1265 17.169C24.5215 18.3651 23.6401 19.3392 22.5745 20.1601C22.0421 20.5701 21.4709 20.9221 20.8844 21.2518C20.5481 21.4407 20.1704 21.4879 19.7977 21.5442C18.7811 21.6966 17.7569 21.7546 16.7302 21.7795C15.1905 21.8167 13.6509 21.8051 12.1104 21.7844C12.0293 21.7836 11.9481 21.7811 11.867 21.7811C11.4741 21.7795 11.5341 21.7372 11.3329 22.0785C9.4485 25.2758 7.56575 28.474 5.68216 31.6714C3.93378 34.6401 2.18624 37.6088 0.43616 40.5767C0.357571 40.7093 0.296729 40.8567 0.148002 41L0.148847 40.9992Z" fill="#F8FAFC"/>
<path d="M5.00713 40.9593C4.98113 40.8906 5.03232 40.8421 5.0632 40.7905C5.83031 39.4865 6.60149 38.1856 7.36291 36.8784C7.46124 36.7103 7.58232 36.6658 7.76841 36.6658C8.83375 36.6665 9.89829 36.6572 10.9636 36.6533C13.0155 36.6462 15.0682 36.6415 17.12 36.6361C17.237 36.6361 17.3541 36.6361 17.4703 36.6298C17.5377 36.6267 17.5548 36.5798 17.5312 36.5266C17.5003 36.4578 17.4621 36.3929 17.424 36.3272C16.708 35.0959 15.9921 33.8646 15.2762 32.6333C15.251 32.5895 15.2234 32.5473 15.199 32.5027C15.1535 32.4183 15.0885 32.3698 14.9828 32.3745C14.8918 32.3792 14.8008 32.3745 14.7098 32.3745C13.2682 32.3745 11.8266 32.3745 10.385 32.3745C10.2607 32.3745 10.1364 32.3651 10.0039 32.3597C10.1323 32.0602 14.8089 24.4745 15.1535 24C15.2754 24.0453 15.2973 24.1657 15.351 24.2572C16.6804 26.5463 18.0058 28.8369 19.3328 31.1268C21.1644 34.2899 22.9961 37.453 24.8269 40.6161C24.8887 40.7232 24.9488 40.8311 25 40.9218C24.9862 40.9601 24.9846 40.9742 24.9764 40.9812C24.9675 40.9883 24.9521 40.9914 24.9399 40.9914C18.3942 40.9945 11.8486 40.9977 5.30292 41C5.21272 41 5.12252 40.9906 5.03232 40.9836C5.0242 40.9836 5.01688 40.9687 5.00876 40.9593H5.00713Z" fill="#EB3334"/>
<path d="M38.704 9.622H41.586V18.444C41.586 22.998 38.792 25.33 34.92 25.33C31.224 25.33 28.078 23.086 28.078 18.444V9.622H30.96V18.444C30.96 21.216 32.544 22.69 34.942 22.69C37.34 22.69 38.704 21.084 38.704 18.444V9.622ZM55.2076 19.148V9.578H58.1116V25H56.3076V25.022L48.2116 14.616V25H45.3076V9.6H47.6616L55.2076 19.148ZM74.3452 9.6V18.422C74.3452 22.404 71.8152 25.308 67.5692 25.308C63.6312 25.308 60.8152 22.954 60.8152 18.598H63.6752C63.6752 21.238 64.9512 22.58 67.5692 22.58C70.2092 22.58 71.4412 20.754 71.4412 18.422V12.306H66.7992V9.6C69.3072 9.6 71.8152 9.6 74.3452 9.6ZM89.9638 25L88.6658 22.096H80.6138L79.2938 25H76.1478L83.0558 9.6H86.2238L93.1318 25H89.9638ZM87.4998 19.39L84.6398 12.834L81.7798 19.39H87.4998ZM97.6423 18.334V22.294H102.086C103.274 22.294 104.968 21.898 104.968 20.446C104.968 19.06 103.274 18.334 102.086 18.334H97.6423ZM97.6423 12.24V15.782H102.086C103.912 15.782 104.506 15.012 104.506 14.132C104.506 13.428 103.934 12.24 102.086 12.24H97.6423ZM102.086 9.6C105.122 9.6 107.388 10.964 107.388 14.066C107.388 15.254 106.816 16.398 105.386 17.036C107.19 17.586 107.85 19.5 107.85 20.468C107.85 23.9 105.276 25 102.086 25C99.6443 25 97.2243 25 94.7823 25V9.6C97.2023 9.6 99.6443 9.6 102.086 9.6Z" fill="#F8FAFC"/>
<path d="M27.2884 40L30.7488 31.5891H31.7101L35.1465 40H33.6566L30.9651 33.1872H31.4698L28.7543 40H27.2884ZM28.9946 38.3779V37.1763H33.4523V38.3779H28.9946ZM41.7238 40L38.3234 31.5891H39.8254L42.4808 38.4019H41.9521L44.6316 31.5891H46.1095L42.6851 40H41.7238ZM51.0393 40V31.5891H52.4211V40H51.0393ZM57.3427 40L60.8032 31.5891H61.7644L65.2009 40H63.7109L61.0195 33.1872H61.5241L58.8086 40H57.3427ZM59.0489 38.3779V37.1763H63.5067V38.3779H59.0489ZM71.0821 40V31.8294H72.4639V40H71.0821ZM68.3425 32.8508V31.5891H75.2034V32.8508H68.3425ZM80.1315 40V31.5891H81.5133V40H80.1315ZM90.9287 40.1202C90.3279 40.1202 89.7672 40.008 89.2465 39.7837C88.7258 39.5594 88.2692 39.251 87.8767 38.8585C87.4842 38.458 87.1758 37.9974 86.9515 37.4767C86.7352 36.9481 86.6271 36.3833 86.6271 35.7825C86.6271 35.1818 86.7352 34.621 86.9515 34.1004C87.1758 33.5797 87.4802 33.1231 87.8647 32.7306C88.2572 32.3301 88.7098 32.0217 89.2225 31.8054C89.7431 31.5811 90.3038 31.469 90.9046 31.469C91.5054 31.469 92.0621 31.5811 92.5748 31.8054C93.0955 32.0217 93.552 32.3301 93.9446 32.7306C94.3371 33.1231 94.6415 33.5837 94.8577 34.1124C95.082 34.6331 95.1942 35.1938 95.1942 35.7946C95.1942 36.3953 95.082 36.9601 94.8577 37.4888C94.6415 38.0094 94.3371 38.466 93.9446 38.8585C93.5601 39.251 93.1075 39.5594 92.5868 39.7837C92.0741 40.008 91.5214 40.1202 90.9287 40.1202ZM90.9046 38.7984C91.4734 38.7984 91.97 38.6703 92.3946 38.4139C92.8271 38.1576 93.1635 37.8052 93.4039 37.3566C93.6522 36.9 93.7763 36.3753 93.7763 35.7825C93.7763 35.342 93.7042 34.9415 93.5601 34.581C93.4239 34.2125 93.2276 33.8961 92.9713 33.6318C92.715 33.3594 92.4106 33.1511 92.0581 33.007C91.7137 32.8628 91.3292 32.7907 90.9046 32.7907C90.3439 32.7907 89.8473 32.9188 89.4147 33.1752C88.9901 33.4235 88.6537 33.7719 88.4054 34.2205C88.1651 34.6691 88.0449 35.1898 88.0449 35.7825C88.0449 36.2231 88.113 36.6316 88.2492 37.0081C88.3934 37.3766 88.5896 37.693 88.838 37.9574C89.0943 38.2217 89.3987 38.43 89.7511 38.5822C90.1036 38.7264 90.4881 38.7984 90.9046 38.7984ZM100.324 40V31.5891H101.285L101.706 33.1752V40H100.324ZM106.152 40L101.117 33.4275L101.285 31.5891L106.32 38.1616L106.152 40ZM106.152 40L105.731 38.5221V31.5891H107.113V40H106.152Z" fill="#EB3334"/>
</svg>
