<svg width="38" height="37" viewBox="0 0 38 37" fill="none" xmlns="http://www.w3.org/2000/svg">
<g clip-path="url(#clip0_951_19364)">
<path d="M5.125 18.5C5.125 20.3221 5.48389 22.1263 6.18117 23.8097C6.87846 25.4931 7.90048 27.0227 9.18889 28.3111C10.4773 29.5995 12.0069 30.6215 13.6903 31.3188C15.3737 32.0161 17.1779 32.375 19 32.375C20.8221 32.375 22.6263 32.0161 24.3097 31.3188C25.9931 30.6215 27.5227 29.5995 28.8111 28.3111C30.0995 27.0227 31.1215 25.4931 31.8188 23.8097C32.5161 22.1263 32.875 20.3221 32.875 18.5C32.875 16.6779 32.5161 14.8737 31.8188 13.1903C31.1215 11.5069 30.0995 9.97731 28.8111 8.68889C27.5227 7.40048 25.9931 6.37846 24.3097 5.68117C22.6263 4.98389 20.8221 4.625 19 4.625C17.1779 4.625 15.3737 4.98389 13.6903 5.68117C12.0069 6.37846 10.4773 7.40048 9.18889 8.68889C7.90048 9.97731 6.87846 11.5069 6.18117 13.1903C5.48389 14.8737 5.125 16.6779 5.125 18.5Z" stroke="#1E5E89" stroke-linecap="round" stroke-linejoin="round"/>
<path d="M14.375 15.416C14.375 16.6426 14.8623 17.819 15.7296 18.6864C16.597 19.5537 17.7734 20.041 19 20.041C20.2266 20.041 21.403 19.5537 22.2704 18.6864C23.1377 17.819 23.625 16.6426 23.625 15.416C23.625 14.1894 23.1377 13.013 22.2704 12.1456C21.403 11.2783 20.2266 10.791 19 10.791C17.7734 10.791 16.597 11.2783 15.7296 12.1456C14.8623 13.013 14.375 14.1894 14.375 15.416Z" stroke="#1E5E89" stroke-linecap="round" stroke-linejoin="round"/>
<path d="M10.0098 29.0582C10.3913 27.7882 11.1721 26.6751 12.2363 25.8839C13.3005 25.0927 14.5914 24.6656 15.9174 24.666H22.0841C23.4119 24.6656 24.7043 25.0937 25.7693 25.8867C26.8342 26.6797 27.6148 27.7953 27.9948 29.0675" stroke="#1E5E89" stroke-linecap="round" stroke-linejoin="round"/>
</g>
<defs>
<clipPath id="clip0_951_19364">
<rect width="37" height="37" fill="white" transform="translate(0.5)"/>
</clipPath>
</defs>
</svg>
