<svg width="36" height="36" viewBox="0 0 36 36" fill="none" xmlns="http://www.w3.org/2000/svg">
<g clip-path="url(#clip0_951_19340)">
<path d="M22.5 7.5V10.5" stroke="#1E5E89" stroke-linecap="round" stroke-linejoin="round"/>
<path d="M22.5 16.5V19.5" stroke="#1E5E89" stroke-linecap="round" stroke-linejoin="round"/>
<path d="M22.5 25.5V28.5" stroke="#1E5E89" stroke-linecap="round" stroke-linejoin="round"/>
<path d="M7.5 7.5H28.5C29.2956 7.5 30.0587 7.81607 30.6213 8.37868C31.1839 8.94129 31.5 9.70435 31.5 10.5V15C30.7044 15 29.9413 15.3161 29.3787 15.8787C28.8161 16.4413 28.5 17.2044 28.5 18C28.5 18.7956 28.8161 19.5587 29.3787 20.1213C29.9413 20.6839 30.7044 21 31.5 21V25.5C31.5 26.2956 31.1839 27.0587 30.6213 27.6213C30.0587 28.1839 29.2956 28.5 28.5 28.5H7.5C6.70435 28.5 5.94129 28.1839 5.37868 27.6213C4.81607 27.0587 4.5 26.2956 4.5 25.5V21C5.29565 21 6.05871 20.6839 6.62132 20.1213C7.18393 19.5587 7.5 18.7956 7.5 18C7.5 17.2044 7.18393 16.4413 6.62132 15.8787C6.05871 15.3161 5.29565 15 4.5 15V10.5C4.5 9.70435 4.81607 8.94129 5.37868 8.37868C5.94129 7.81607 6.70435 7.5 7.5 7.5Z" stroke="#1E5E89" stroke-linecap="round" stroke-linejoin="round"/>
</g>
<defs>
<clipPath id="clip0_951_19340">
<rect width="36" height="36" fill="white"/>
</clipPath>
</defs>
</svg>
